<mxfile host="app.diagrams.net" agent="Mozilla/5.0 (Windows NT 10.0; Win64; x64) AppleWebKit/537.36 (KHTML, like Gecko) Chrome/132.0.0.0 Safari/537.36 Edg/132.0.0.0" version="26.0.10">
  <diagram name="Page-1" id="kx5iQR2TxsQaCrXd9d7r">
    <mxGraphModel dx="1195" dy="689" grid="1" gridSize="10" guides="1" tooltips="1" connect="1" arrows="1" fold="1" page="1" pageScale="1" pageWidth="850" pageHeight="1100" background="#ffffff" math="1" shadow="0">
      <root>
        <mxCell id="0" />
        <mxCell id="1" parent="0" />
        <mxCell id="XYIH_iJWPx2iyIGVlZ14-7" value="" style="rounded=0;whiteSpace=wrap;html=1;fillStyle=solid;strokeColor=none;fillColor=#FFFFFF;" vertex="1" parent="1">
          <mxGeometry width="600" height="490" as="geometry" />
        </mxCell>
        <mxCell id="XYIH_iJWPx2iyIGVlZ14-1" value="" style="shape=image;verticalLabelPosition=bottom;labelBackgroundColor=default;verticalAlign=top;aspect=fixed;imageAspect=0;editableCssRules=.*;image=data:image/svg+xml,PHN2ZyB4bWxuczp4bGluaz0iaHR0cDovL3d3dy53My5vcmcvMTk5OS94bGluayIgeG1sbnM9Imh0dHA6Ly93d3cudzMub3JnLzIwMDAvc3ZnIiB2aWV3Qm94PSIwIDAgMjQwMCAxNjAwIiBoZWlnaHQ9IjQwMCIgd2lkdGg9IjYwMCI+JiN4YTs8ZGVmcz4mI3hhOyAgPGNsaXBQYXRoIGlkPSJjbGlwNzQwIj4mI3hhOyAgICA8cmVjdCBoZWlnaHQ9IjE2MDAiIHdpZHRoPSIyNDAwIiB5PSIwIiB4PSIwIi8+JiN4YTsgIDwvY2xpcFBhdGg+JiN4YTs8L2RlZnM+JiN4YTs8cGF0aCBmaWxsLW9wYWNpdHk9IjEiIGZpbGwtcnVsZT0iZXZlbm9kZCIgZmlsbD0iI2ZmZmZmZiIgZD0iTTAgMTYwMCBMMjQwMCAxNjAwIEwyNDAwIDAgTDAgMCAgWiIgY2xpcC1wYXRoPSJ1cmwoI2NsaXA3NDApIi8+JiN4YTs8ZGVmcz4mI3hhOyAgPGNsaXBQYXRoIGlkPSJjbGlwNzQxIj4mI3hhOyAgICA8cmVjdCBoZWlnaHQ9IjE2MDAiIHdpZHRoPSIxNjgxIiB5PSIwIiB4PSI0ODAiLz4mI3hhOyAgPC9jbGlwUGF0aD4mI3hhOzwvZGVmcz4mI3hhOzxwYXRoIGZpbGwtb3BhY2l0eT0iMSIgZmlsbC1ydWxlPSJldmVub2RkIiBmaWxsPSIjZmZmZmZmIiBkPSJNNDcuMjQ0MSAxNTUyLjc2IEwyMzUyLjc2IDE1NTIuNzYgTDIzNTIuNzYgNDcuMjQ0MSBMNDcuMjQ0MSA0Ny4yNDQxICBaIiBjbGlwLXBhdGg9InVybCgjY2xpcDc0MCkiLz4mI3hhOzxkZWZzPiYjeGE7ICA8Y2xpcFBhdGggaWQ9ImNsaXA3NDIiPiYjeGE7ICAgIDxyZWN0IGhlaWdodD0iMTUwNyIgd2lkdGg9IjIzMDciIHk9IjQ3IiB4PSI0NyIvPiYjeGE7ICA8L2NsaXBQYXRoPiYjeGE7PC9kZWZzPiYjeGE7PHBvbHlsaW5lIHBvaW50cz0iMTEyLjQ5NCw0NDEuNjA5IDExMy45NDUsNDc0LjgzOCAxMTUuMzk2LDQyMi4zODEgMTE2Ljg0NywzODAuNTc0IDExOC4yOTgsNDA2LjQ4NiAxMTkuNzQ5LDMyNi41NjMgMTIxLjIsMzI0LjI4OCAxMjIuNjUxLDI4MC4xNTggMTI0LjEwMiwzMjguMzA3IDEyNS41NTMsMzAxLjA4OSAxMjcuMDA0LDI4My4xODcgMTI4LjQ1NSwyNjAuNDIzIDEyOS45MDYsMjExLjk3MiAxMzEuMzU3LDI4MC42NTYgMTMyLjgwOCwyMzcuMzk0IDEzNC4yNTksMjI2LjU3OSAxMzUuNzEsMTkwLjU2NSAxMzcuMTYxLDI2My44NzMgMTM4LjYxMiwyMjEuOTg0IDE0MC4wNjMsMTc1LjI1OCAxNDEuNTE0LDIxNi4zMzEgMTQyLjk2NSwxMTUuNDU3IDE0NC40MTYsMTY0LjI3OCAxNDUuODY3LDE4Ny40OTggMTQ3LjMxOCwxMjMuNDczIDE0OC43NjksMTk3LjI1NyAxNTAuMjIsMTY4LjI2NiAxNTEuNjcxLDIxNS43ODMgMTUzLjEyMiwxNjYuMzcxIDE1NC41NzMsMTk4LjkwMSAxNTYuMDI0LDE5NS4xMjEgMTU3LjQ3NSwyMDUuNDU5IDE1OC45MjYsMjE5LjkzMSAxNjAuMzc3LDIwNC4yMjcgMTYxLjgyOCwyMDUuMDk3IDE2My4yNzksMTg0LjIxNCAxNjQuNzMsMjM0LjUxNCAxNjYuMTgsMjg1Ljg2NSAxNjcuNjMxLDI4NS4xODIgMTY5LjA4MiwzMDUuMDE1IDE3MC41MzMsMzE1LjU4NCAxNzEuOTg0LDMxMi42MTYgMTczLjQzNSwzNjUuODk4IDE3NC44ODYsMzU0LjUxOCAxNzYuMzM3LDMzNi42MjUgMTc3Ljc4OCwzNDcuODk1IDE3OS4yMzksMzU4LjIzMiAxODAuNjksNDQxLjI3MSAxODIuMTQxLDQzNS43NjMgMTgzLjU5Miw0NjMuNzc1IDE4NS4wNDMsNDg5Ljg3MyAxODYuNDk0LDQ4OS4yMTYgMTg3Ljk0NSw1MzIuOTg1IDE4OS4zOTYsNTY1Ljc5NCAxOTAuODQ3LDU0My40MDMgMTkyLjI5OCw2MTkuNzQxIDE5My43NDksNTUwLjA2MyAxOTUuMiw2MDUuNjA3IDE5Ni42NTEsNjUyLjU2OCAxOTguMTAyLDY1MS44NjggMTk5LjU1Myw2NTEuMjQ1IDIwMS4wMDQsNzI0LjgyMSAyMDIuNDU1LDY5Mi4yNjIgMjAzLjkwNiw2NzcuNzY3IDIwNS4zNTcsNzAxLjQ2MyAyMDYuODA4LDc5MC4wNzUgMjA4LjI1OSw3MjQuNTcyIDIwOS43MSw3NjcuODg1IDIxMS4xNjEsNzYyLjc1MSAyMTIuNjEyLDgwOS45MDQgMjE0LjA2Myw3OTkuNTIxIDIxNS41MTQsNzM2LjUxMyAyMTYuOTY1LDc1OS42MTggMjE4LjQxNiw3NjAuODc3IDIxOS44NjcsNzY4LjY2MyAyMjEuMzE4LDc3Ny42MTMgMjIyLjc2OSw3OTkuMTYzIDIyNC4yMTksNzY0LjYgMjI1LjY3LDgxNy4zMzkgMjI3LjEyMSw4MDYuMTM2IDIyOC41NzIsNzIzLjAxNyAyMzAuMDIzLDc5MC44MzEgMjMxLjQ3NCw3NTcuOTQzIDIzMi45MjUsNzExLjgzMyAyMzQuMzc2LDcyNy43MzQgMjM1LjgyNyw3NDAuNzg4IDIzNy4yNzgsNjk1LjI3OCAyMzguNzI5LDcyNC44ODMgMjQwLjE4LDY2OC4wMTkgMjQxLjYzMSw2ODIuNTAzIDI0My4wODIsNjYyLjE2MiAyNDQuNTMzLDU4OS45MjcgMjQ1Ljk4NCw2MzIuMjE3IDI0Ny40MzUsNjI4Ljg0MyAyNDguODg2LDU1OC41MzIgMjUwLjMzNyw1MTguMjkxIDI1MS43ODgsNTQzLjM5OSAyNTMuMjM5LDU1MS4xNzkgMjU0LjY5LDUyMi42NzggMjU2LjE0MSw1MjMuNDMyIDI1Ny41OTIsNTE5LjI0OSAyNTkuMDQzLDM5Ni4zNzYgMjYwLjQ5NCw0MTguNTQ0IDI2MS45NDUsNDA5Ljk1MiAyNjMuMzk2LDM5My4wNTUgMjY0Ljg0Nyw0MDQuNzUyIDI2Ni4yOTgsMzMwLjQ4MSAyNjcuNzQ5LDM0MS44OTQgMjY5LjIsMzIzLjM0OCAyNzAuNjUxLDMyMy45MjggMjcyLjEwMiwyOTIuNzMzIDI3My41NTMsMjU0LjM5MSAyNzUuMDA0LDI0NC43NiAyNzYuNDU1LDIyOS42MjUgMjc3LjkwNiwxODguNzM0IDI3OS4zNTcsMzA4LjQ2NyAyODAuODA3LDI3Mi41NTggMjgyLjI1OCwxNTYuMTg1IDI4My43MDksMTY4Ljg2OCAyODUuMTYsMTg0LjE0NyAyODYuNjExLDE2MS4xNzggMjg4LjA2MiwxNDUuOTQzIDI4OS41MTMsMTU1LjQwNyAyOTAuOTY0LDE2MC40MDkgMjkyLjQxNSwxOTAuNDY1IDI5My44NjYsMjA3LjAzIDI5NS4zMTcsMTczLjc2OSAyOTYuNzY4LDI0MS4yNzkgMjk4LjIxOSwxOTMuNjY0IDI5OS42NywxNjEuMzY0IDMwMS4xMjEsMjMxLjg1OSAzMDIuNTcyLDE3Ni43MDUgMzA0LjAyMywyMTUuMTU2IDMwNS40NzQsMTQ3LjQ0OSAzMDYuOTI1LDIxMy4zOTYgMzA4LjM3NiwyNDAuMDMzIDMwOS44MjcsMjQwLjUyNiAzMTEuMjc4LDIzMy44OTkgMzEyLjcyOSwyODcuNzgxIDMxNC4xOCwyNjguOTE2IDMxNS42MzEsMzUwLjA1MyAzMTcuMDgyLDI5Ny40ODQgMzE4LjUzMywzOTQuMTIyIDMxOS45ODQsMzY0Ljk4NSAzMjEuNDM1LDM2MC4yMiAzMjIuODg2LDQzNi4zMDUgMzI0LjMzNyw0MzMuNDg2IDMyNS43ODgsMzk4LjQyOCAzMjcuMjM5LDQ0OC4zODIgMzI4LjY5LDQ0MC45IDMzMC4xNDEsNTEzLjI2NSAzMzEuNTkyLDUyNS44OTUgMzMzLjA0Myw1NTMuMzgzIDMzNC40OTQsNTQyLjI3NyAzMzUuOTQ1LDUwOC45ODYgMzM3LjM5Niw1NzYuODU5IDMzOC44NDYsNjQxLjEwOCAzNDAuMjk3LDY4Ni45ODUgMzQxLjc0OCw2OTEuMzU5IDM0My4xOTksNzE3LjM5MSAzNDQuNjUsNjMyLjQ4NCAzNDYuMTAxLDcxMi43OTQgMzQ3LjU1Miw3MTMuNjAyIDM0OS4wMDMsNzI3LjE1OSAzNTAuNDU0LDc3OS4wOTUgMzUxLjkwNSw3NDAuNzk5IDM1My4zNTYsNzU4LjExMSAzNTQuODA3LDgwNy4wODIgMzU2LjI1OCw3NzguMzA0IDM1Ny43MDksNzM4LjkxMyAzNTkuMTYsODIwLjAwMiAzNjAuNjExLDc2Ny4wMjUgMzYyLjA2Miw3OTguMzUxIDM2My41MTMsNzgwLjIxNyAzNjQuOTY0LDc2NC45ODEgMzY2LjQxNSw4NTIuMTM3IDM2Ny44NjYsNzgxLjA4NSAzNjkuMzE3LDczMC40NzkgMzcwLjc2OCw3ODkuNTAzIDM3Mi4yMTksNzA0LjIzNiAzNzMuNjcsNzgzLjA2MSAzNzUuMTIxLDc3OC4xNTIgMzc2LjU3Miw3NzQuNzUzIDM3OC4wMjMsNzQ4LjU3MSAzNzkuNDc0LDc5Mi44MjMgMzgwLjkyNSw3MjIuNDE2IDM4Mi4zNzYsNzAzLjg5IDM4My44MjcsNjQ1Ljk1MyAzODUuMjc4LDcwOS44IDM4Ni43MjksNjYwLjU3NiAzODguMTgsNjI5Ljc1MiAzODkuNjMxLDYzNy4wMDggMzkxLjA4Miw1ODAuMTcxIDM5Mi41MzMsNjMyLjIzMiAzOTMuOTg0LDU2MC4wMjggMzk1LjQzNSw1NTMuMDggMzk2Ljg4NSw1MTguOTU4IDM5OC4zMzYsNDk3LjExMyAzOTkuNzg3LDQ4My42NzMgNDAxLjIzOCw1MDMuODI3IDQwMi42ODksNDYzLjEwNyA0MDQuMTQsNDA1LjM2NyA0MDUuNTkxLDM2Mi44NzMgNDA3LjA0Miw0MTYuODU2IDQwOC40OTMsNDAxLjQyMiA0MDkuOTQ0LDM0NC4wNjkgNDExLjM5NSw0MTYuNTU0IDQxMi44NDYsMzc2LjQxMSA0MTQuMjk3LDMxOS4xNzIgNDE1Ljc0OCwyOTguMTc0IDQxNy4xOTksMjQwLjM4MSA0MTguNjUsMjYwLjU3MSA0MjAuMTAxLDI3NC42MiA0MjEuNTUyLDI0NC41NDMgNDIzLjAwMywyNDQuMjc2IDQyNC40NTQsMTkxLjkxMyA0MjUuOTA1LDE5Ni4zNzUgNDI3LjM1NiwxNjQuNTUxIDQyOC44MDcsMjA2LjEzNiA0MzAuMjU4LDE0Ni42NDMgNDMxLjcwOSwyMzIuOTMgNDMzLjE2LDE2NC41OTEgNDM0LjYxMSwxMzkuOTUgNDM2LjA2MiwyMDkuMDYyIDQzNy41MTMsMjM4LjkzOSA0MzguOTY0LDEzOS4wNDggNDQwLjQxNSwxODkuNjc5IDQ0MS44NjYsMTk0LjkxMyA0NDMuMzE3LDE4OC4yNDEgNDQ0Ljc2OCwxNTMuMDMzIDQ0Ni4yMTksMTQyLjkwNCA0NDcuNjcsMTkyLjMyNSA0NDkuMTIxLDIyNi42NTUgNDUwLjU3MiwyODguNTc4IDQ1Mi4wMjMsMjA0LjU1NiA0NTMuNDczLDIxMC42OTUgNDU0LjkyNCwyNTAuMjQ3IDQ1Ni4zNzUsMjM1LjY1OSA0NTcuODI2LDMxNS4wNTYgNDU5LjI3NywzMDMuNzcxIDQ2MC43MjgsMjk1LjYyIDQ2Mi4xNzksMzEyLjEyNiA0NjMuNjMsMzg4LjEyOSA0NjUuMDgxLDQxNS44ODcgNDY2LjUzMiwyOTcuODgyIDQ2Ny45ODMsMzc4LjIyNCA0NjkuNDM0LDQzOC4yOTcgNDcwLjg4NSw0NDcuMTA5IDQ3Mi4zMzYsNTQ1LjE4NyA0NzMuNzg3LDQ2OS4zOTkgNDc1LjIzOCw1NTIuMTA0IDQ3Ni42ODksNTI1LjUwMSA0NzguMTQsNTQ4LjAzIDQ3OS41OTEsNTU0LjUyMyA0ODEuMDQyLDU1Ny40MjggNDgyLjQ5Myw2MTMuMjU1IDQ4My45NDQsNjAyLjk4NiA0ODUuMzk1LDYwMy45MjQgNDg2Ljg0Niw1OTguNzcyIDQ4OC4yOTcsNjE4LjU4MyA0ODkuNzQ4LDY4OS4wMjggNDkxLjE5OSw2NjcuNzU5IDQ5Mi42NSw2OTYuMiA0OTQuMTAxLDY5Ni41NjcgNDk1LjU1Miw3NjkuNzUyIDQ5Ny4wMDMsNzE1Ljg2NiA0OTguNDU0LDcyNC45ODcgNDk5LjkwNSw3NjEuNzIxIDUwMS4zNTYsNzAyLjg3MyA1MDIuODA3LDgwMS41OCA1MDQuMjU4LDc5My4xNDMgNTA1LjcwOSw4MjUuMzI0IDUwNy4xNiw3OTYuODk0IDUwOC42MTEsNzgxLjgwMyA1MTAuMDYyLDgzMC42NzUgNTExLjUxMiw3NjIuODc2IDUxMi45NjMsNzY4LjExMyA1MTQuNDE0LDc5My41MTUgNTE1Ljg2NSw4MjkuNjczIDUxNy4zMTYsNzkzLjQ3NyA1MTguNzY3LDc4Mi4xODIgNTIwLjIxOCw3MTQuOTUyIDUyMS42NjksNzQyLjIgNTIzLjEyLDcyMS4xNjMgNTI0LjU3MSw3NTcuOTQ2IDUyNi4wMjIsNzY2LjA1NSA1MjcuNDczLDcxNC4yNjIgNTI4LjkyNCw2NTMuNjYxIDUzMC4zNzUsNjIyLjU0MyA1MzEuODI2LDY5Mi43ODEgNTMzLjI3Nyw2NjEuNzk1IDUzNC43MjgsNjAxLjEwOCA1MzYuMTc5LDU4NS43NjYgNTM3LjYzLDU1Mi43OTkgNTM5LjA4MSw1MjguNzY1IDU0MC41MzIsNTY2LjM5MiA1NDEuOTgzLDQ5OC41MjkgNTQzLjQzNCw0OTEuNDk3IDU0NC44ODUsNTA3LjQzNyA1NDYuMzM2LDUxNy45MDEgNTQ3Ljc4Nyw0NzguNTUzIDU0OS4yMzgsNDU0LjEwNSA1NTAuNjg5LDQxNi44OTcgNTUyLjE0LDQwNS45ODYgNTUzLjU5MSwzNjEuNzA3IDU1NS4wNDIsMzUzLjgwNyA1NTYuNDkzLDMyMi41NiA1NTcuOTQ0LDMzOS43MTkgNTU5LjM5NSwzOTUuMjAzIDU2MC44NDYsMjg0LjUzNCA1NjIuMjk3LDI1Ny4zMDggNTYzLjc0OCwyNTUuNSA1NjUuMTk5LDI2My40NjIgNTY2LjY1LDI1OC43MDcgNTY4LjEsMjA5LjcyNCA1NjkuNTUxLDE3My45MjggNTcxLjAwMiwxNjkuMTY2IDU3Mi40NTMsMTkwLjQ0NSA1NzMuOTA0LDE3NS4yNzMgNTc1LjM1NSwyMTIuNzY4IDU3Ni44MDYsMjE4LjE5NCA1NzguMjU3LDE4OS40MzUgNTc5LjcwOCwyMjIuMDc1IDU4MS4xNTksMjA4Ljc3MyA1ODIuNjEsMjEwLjA3OCA1ODQuMDYxLDE1My41MDUgNTg1LjUxMiwxNDEuNjE5IDU4Ni45NjMsMTk4LjcxNiA1ODguNDE0LDE2NC4zNTYgNTg5Ljg2NSwxODIuOTg2IDU5MS4zMTYsMTgzLjk4NiA1OTIuNzY3LDE5MS40NSA1OTQuMjE4LDIxNi43MDQgNTk1LjY2OSwxNzUuMjk1IDU5Ny4xMiwyMDYuNjkyIDU5OC41NzEsMjYyLjg5NCA2MDAuMDIyLDI4Ni4xNDIgNjAxLjQ3MywyMzIuOTc4IDYwMi45MjQsMjY2Ljc0MyA2MDQuMzc1LDI4Mi4xMDEgNjA1LjgyNiwzMzIuNTMgNjA3LjI3NywzNzQuNzc0IDYwOC43MjgsMzEwLjk2NyA2MTAuMTc5LDM0Ny4zOTMgNjExLjYzLDM2Ny4yMjMgNjEzLjA4MSwzODMuMjM4IDYxNC41MzIsMzkzLjE0MiA2MTUuOTgzLDQzNy4yNDcgNjE3LjQzNCwzODYuMTAxIDYxOC44ODUsNDk5LjA1NSA2MjAuMzM2LDUxMy41NSA2MjEuNzg3LDUwMi4xMDUgNjIzLjIzOCw1NjIuNTQ2IDYyNC42ODksNTI2LjU5MSA2MjYuMTM5LDU5My42NTQgNjI3LjU5LDU5MC42MSA2MjkuMDQxLDU5MS45NTEgNjMwLjQ5Miw1NjUuMTQ1IDYzMS45NDMsNTkxLjMxMyA2MzMuMzk0LDcwOS42OTUgNjM0Ljg0NSw2NzguNjE0IDYzNi4yOTYsNjg0LjgyOSA2MzcuNzQ3LDczOS4wMzggNjM5LjE5OCw3MjkuOTYgNjQwLjY0OSw2NzYuMjQ4IDY0Mi4xLDcxMy4zNTQgNjQzLjU1MSw3NTkuODI1IDY0NS4wMDIsNzg5LjIzOSA2NDYuNDUzLDc3NC45NzEgNjQ3LjkwNCw3NzIuMTAxIDY0OS4zNTUsODIxLjA5NCA2NTAuODA2LDc3MC4yMjYgNjUyLjI1Nyw3NjUuMDkgNjUzLjcwOCw4MTcuMjUzIDY1NS4xNTksNzY0LjY3MyA2NTYuNjEsNzk0Ljk0IDY1OC4wNjEsNzg2LjIwNCA2NTkuNTEyLDgzMS44MTUgNjYwLjk2Myw3ODcuODM5IDY2Mi40MTQsNzU2LjQ4NiA2NjMuODY1LDc4NC4xNiA2NjUuMzE2LDc0OS4xMDcgNjY2Ljc2Nyw3MzkuOTEyIDY2OC4yMTgsNzUwLjg0OSA2NjkuNjY5LDc4Mi40MzMgNjcxLjEyLDcyOC41OTkgNjcyLjU3MSw2OTMuMDQgNjc0LjAyMiw2NzYuNDQyIDY3NS40NzMsNzA2LjU5MSA2NzYuOTI0LDY0OC4zMTUgNjc4LjM3NSw2MzcuNjg5IDY3OS44MjYsNjYyLjU2MiA2ODEuMjc3LDYyOS43NjEgNjgyLjcyOCw1NjIuODM4IDY4NC4xNzgsNTU5LjA2NyA2ODUuNjI5LDU1Ny42ODMgNjg3LjA4LDUzMi40MzEgNjg4LjUzMSw1NDEuNTI5IDY4OS45ODIsNDY0LjE0NiA2OTEuNDMzLDQ2Ny44NTggNjkyLjg4NCw0NTQuODE4IDY5NC4zMzUsNDcwLjEwNSA2OTUuNzg2LDQ3My41MTEgNjk3LjIzNyw0NDAuNDk2IDY5OC42ODgsMzQ0LjEzMSA3MDAuMTM5LDM0OC4zNTQgNzAxLjU5LDI5My4xMTggNzAzLjA0MSwzNDIuMzk5IDcwNC40OTIsMjQ5LjM4OSA3MDUuOTQzLDI4Ni4xOTggNzA3LjM5NCwyNTEuOTQxIDcwOC44NDUsMjQ1LjEyMiA3MTAuMjk2LDI0NC45ODQgNzExLjc0NywyMTIuMDMgNzEzLjE5OCwyMjUuODc1IDcxNC42NDksMjAyLjUyMiA3MTYuMSwxOTQuNTQxIDcxNy41NTEsMTE2Ljc2NSA3MTkuMDAyLDIyNC4xMTUgNzIwLjQ1MywxNzguNjUyIDcyMS45MDQsMTI0LjIxMyA3MjMuMzU1LDE4My43NjYgNzI0LjgwNiwxNzguNTc1IDcyNi4yNTcsMTgwLjQxIDcyNy43MDgsMjI3LjQzNyA3MjkuMTU5LDE3OS4wOTggNzMwLjYxLDE3Ni4zMjIgNzMyLjA2MSwyMTQuODg3IDczMy41MTIsMTk5LjA0MSA3MzQuOTYzLDIwNC41NDQgNzM2LjQxNCwxOTIuMzkzIDczNy44NjUsMTY3LjQ3OSA3MzkuMzE2LDI2Mi44ODUgNzQwLjc2NiwxOTguODI5IDc0Mi4yMTcsMjE4LjYwMiA3NDMuNjY4LDIyNS42NjkgNzQ1LjExOSwyNTIuNTg2IDc0Ni41NywyMzQuMzM0IDc0OC4wMjEsMjk4Ljg2NSA3NDkuNDcyLDI4Ny40MzUgNzUwLjkyMywyODMuMTE1IDc1Mi4zNzQsMzQ3LjMxOSA3NTMuODI1LDM5MC4wNjEgNzU1LjI3NiwzNDAuNTk3IDc1Ni43MjcsMzc0LjMxMSA3NTguMTc4LDQwNS44MzggNzU5LjYyOSw0MzAuMDI3IDc2MS4wOCw0NjIuMzA3IDc2Mi41MzEsNDM3LjAzNCA3NjMuOTgyLDUwOC43NTIgNzY1LjQzMyw0ODAuOTY2IDc2Ni44ODQsNTM5LjE3IDc2OC4zMzUsNTQwLjg1NSA3NjkuNzg2LDU4NC4yMzkgNzcxLjIzNyw1NDEuOTI5IDc3Mi42ODgsNjA3LjU1MSA3NzQuMTM5LDYyNi4yNSA3NzUuNTksNjQ1LjUwNyA3NzcuMDQxLDY3Ni41MzcgNzc4LjQ5Miw2OTkuMzE0IDc3OS45NDMsNjUxLjM2NCA3ODEuMzk0LDcwNC43MDIgNzgyLjg0NSw3MDcuNzM1IDc4NC4yOTYsNjg4LjQ3IDc4NS43NDcsNzMzLjkzNCA3ODcuMTk4LDc5My42MjIgNzg4LjY0OSw3MDAuOTQyIDc5MC4xLDc0MC44NjggNzkxLjU1MSw3NDcuMDAyIDc5My4wMDIsNzY4LjYzNyA3OTQuNDUzLDc4My4xMTMgNzk1LjkwNCw3ODIuNzcxIDc5Ny4zNTUsNzU2LjM1OCA3OTguODA1LDgzMy40MDggODAwLjI1Niw3OTQuNTM0IDgwMS43MDcsNzg3LjAzOSA4MDMuMTU4LDc4Mi44MTUgODA0LjYwOSw4MjYuNDYyIDgwNi4wNiw3NTYuNTAxIDgwNy41MTEsNzkzLjA4NSA4MDguOTYyLDgxNy41NyA4MTAuNDEzLDc4Ny4yMDYgODExLjg2NCw3NDcuNzcgODEzLjMxNSw3NjAuMDIyIDgxNC43NjYsNzA5LjYxOCA4MTYuMjE3LDY4Ni4xODcgODE3LjY2OCw2OTguOTk4IDgxOS4xMTksNzAxLjU5NyA4MjAuNTcsNjU4LjQ5OSA4MjIuMDIxLDYyNi40MzYgODIzLjQ3Miw2MDEuNjEgODI0LjkyMyw2MzAuNTEyIDgyNi4zNzQsNTQ2LjIxMiA4MjcuODI1LDYxOS44NzcgODI5LjI3Niw1NzMuODIyIDgzMC43MjcsNTUwLjc0NiA4MzIuMTc4LDUzNSA4MzMuNjI5LDQ4NC4yMDcgODM1LjA4LDUyMC4wODcgODM2LjUzMSw0OTQuOTk5IDgzNy45ODIsNDc4LjY0MiA4MzkuNDMzLDM5NS45NDMgODQwLjg4NCw0NTMuMDU4IDg0Mi4zMzUsMzcxLjMxOSA4NDMuNzg2LDMyOS40NTEgODQ1LjIzNywzNTAuNTg4IDg0Ni42ODgsMzA3LjgzNiA4NDguMTM5LDMxNC42MDMgODQ5LjU5LDI3MC41MjMgODUxLjA0MSwyNDEuOTQzIDg1Mi40OTIsMjkxLjI4NyA4NTMuOTQzLDI5Mi4yNjEgODU1LjM5MywyNDYuNjMxIDg1Ni44NDQsMjE3LjAzIDg1OC4yOTUsMTY4LjA1NyA4NTkuNzQ2LDIzOC4zMTYgODYxLjE5NywyNzEuNTA2IDg2Mi42NDgsMTM4LjMxNiA4NjQuMDk5LDE5MS4zMiA4NjUuNTUsMjE3Ljc0MSA4NjcuMDAxLDE1OS40NSA4NjguNDUyLDE1My4zMTYgODY5LjkwMywxNTcuNDYxIDg3MS4zNTQsMjEyLjM4MyA4NzIuODA1LDE0OS4zODEgODc0LjI1NiwyMTAuMTI4IDg3NS43MDcsMTUxLjI0MiA4NzcuMTU4LDIwMi4xMTEgODc4LjYwOSwxNTguNDMgODgwLjA2LDE3NC4zNTMgODgxLjUxMSwyMDIuNTgzIDg4Mi45NjIsMTgxLjY0MSA4ODQuNDEzLDE4NC41NjkgODg1Ljg2NCwxODcuMDMzIDg4Ny4zMTUsMjI4LjI0MSA4ODguNzY2LDI0OC42NzEgODkwLjIxNywyNjQuOTgxIDg5MS42NjgsMjY5Ljc2NiA4OTMuMTE5LDI5Ny4zMDEgODk0LjU3LDI5NC4xMjMgODk2LjAyMSwzMTcuODQ4IDg5Ny40NzIsMzE3LjkwOCA4OTguOTIzLDMxOS43OSA5MDAuMzc0LDM0MC43OTQgOTAxLjgyNSwzOTIuNTkzIDkwMy4yNzYsNDMxLjE0NyA5MDQuNzI3LDQxMC4wODEgOTA2LjE3OCw0MTUuNjI0IDkwNy42MjksNTA0LjkxNyA5MDkuMDgsNDg3Ljk1MSA5MTAuNTMxLDQ2My41NzEgOTExLjk4Miw0ODcuODkyIDkxMy40MzIsNTYyLjkwMyA5MTQuODgzLDUxMi40ODggOTE2LjMzNCw1OTMuOTgzIDkxNy43ODUsNTcwLjM0NSA5MTkuMjM2LDY0OS4zNTggOTIwLjY4Nyw2NTQuNDY4IDkyMi4xMzgsNjY3LjA5MSA5MjMuNTg5LDY5Mi4yNTYgOTI1LjA0LDY0My43MzkgOTI2LjQ5MSw2NzYuODI5IDkyNy45NDIsNzU2LjQ4NyA5MjkuMzkzLDcyMS41NjkgOTMwLjg0NCw3MTUuNzIxIDkzMi4yOTUsNzM5LjAzIDkzMy43NDYsNzgzLjQ4MiA5MzUuMTk3LDc2My4xOTkgOTM2LjY0OCw3OTEuODE4IDkzOC4wOTksNzcwLjU2NSA5MzkuNTUsNzYxLjIyOSA5NDEuMDAxLDg3NC4yMTUgOTQyLjQ1Miw4MDcuNjY3IDk0My45MDMsNzc5LjQ3NCA5NDUuMzU0LDcyOS40ODQgOTQ2LjgwNSw4NDQuNzQzIDk0OC4yNTYsNzU0LjA0NiA5NDkuNzA3LDc2MS40ODMgOTUxLjE1OCw3NjYuMDkxIDk1Mi42MDksODIzLjc3NiA5NTQuMDYsNzUwLjQ4NSA5NTUuNTExLDc0My41IDk1Ni45NjIsNzk4LjIyOCA5NTguNDEzLDc1OS45NjUgOTU5Ljg2NCw3NDMuNTkzIDk2MS4zMTUsNzE5LjE1MyA5NjIuNzY2LDYzNC42ODggOTY0LjIxNyw2NjguMzU4IDk2NS42NjgsNzAxLjkzIDk2Ny4xMTksNjMwLjg5MiA5NjguNTcsNjQyLjQ2NyA5NzAuMDIxLDYyNi4yNzUgOTcxLjQ3MSw2MTMuMjYxIDk3Mi45MjIsNTk4Ljc5IDk3NC4zNzMsNTgyLjY4OCA5NzUuODI0LDUyMy43NDcgOTc3LjI3NSw1NzMuMzgxIDk3OC43MjYsNTQ2LjI4NyA5ODAuMTc3LDQ3NC4yNDIgOTgxLjYyOCw0MjkuMjEyIDk4My4wNzksNTIxLjEyMiA5ODQuNTMsNDQ1LjU1MiA5ODUuOTgxLDM3OC4yNDggOTg3LjQzMiw0MTMuNzA5IDk4OC44ODMsMzU1LjI3MyA5OTAuMzM0LDQwMS44MzMgOTkxLjc4NSwzNTUuNjE4IDk5My4yMzYsMzQzLjgzNSA5OTQuNjg3LDI5NS4yMjMgOTk2LjEzOCwzMDYuMDk2IDk5Ny41ODksMjk4LjQzNSA5OTkuMDQsMjU3Ljk1NSAxMDAwLjQ5LDI2MS4yNDUgMTAwMS45NCwxODcuNDIxIDEwMDMuMzksMjMzLjA2MiAxMDA0Ljg0LDE5OS4wNDUgMTAwNi4yOSwxOTQuNDc0IDEwMDcuNzUsMTY3LjYwMyAxMDA5LjIsMTYxLjYzIDEwMTAuNjUsMjA3LjY0NyAxMDEyLjEsMTkyLjE2MSAxMDEzLjU1LDE1Ni4zNCAxMDE1LDIyNi45NTkgMTAxNi40NSwxNDMuODMxIDEwMTcuOSwxNzMuNCAxMDE5LjM1LDEyNS44NTIgMTAyMC44LDE5MC45MDggMTAyMi4yNiwxOTQuNTYxIDEwMjMuNzEsMTg2LjMxMSAxMDI1LjE2LDE5NC4zMzcgMTAyNi42MSwxNjMuMDI1IDEwMjguMDYsMTY0LjYyNyAxMDI5LjUxLDIzMS41NTMgMTAzMC45NiwyNDIuMjQ2IDEwMzIuNDEsMjY5LjAwNiAxMDMzLjg2LDI3Mi45NTIgMTAzNS4zMSwzMDEuNzM1IDEwMzYuNzcsMjY1LjA2MiAxMDM4LjIyLDMxNi43IDEwMzkuNjcsMjg3LjE0MSAxMDQxLjEyLDI2MC4wOTggMTA0Mi41NywzNDMuNTc2IDEwNDQuMDIsMzExLjM3NCAxMDQ1LjQ3LDMyOS41OTEgMTA0Ni45MiwzOTEuNTg2IDEwNDguMzcsMzIwLjQxOSAxMDQ5LjgyLDM4MC43NiAxMDUxLjI4LDQyOC41MDggMTA1Mi43MywzODkuNzg1IDEwNTQuMTgsNTUzLjYzIDEwNTUuNjMsNTQyLjQyNSAxMDU3LjA4LDU1MS43IDEwNTguNTMsNTAzLjYzNyAxMDU5Ljk4LDUxNS40ODIgMTA2MS40Myw1OTguMTcgMTA2Mi44OCw2MjQuNDk5IDEwNjQuMzMsNjA3LjEwNCAxMDY1Ljc4LDYwMi43NjEgMTA2Ny4yNCw2MTUuODU5IDEwNjguNjksNjAyLjQxNSAxMDcwLjE0LDcxNS42OTQgMTA3MS41OSw2ODIuODE5IDEwNzMuMDQsNzMxLjE1NiAxMDc0LjQ5LDc1Ni4yMyAxMDc1Ljk0LDczNS43NzIgMTA3Ny4zOSw3NzAuMTUgMTA3OC44NCw3NjIuMzk5IDEwODAuMjksODIwLjk2NCAxMDgxLjc1LDcyNi40NDMgMTA4My4yLDg0MS4wNjggMTA4NC42NSw3NjQuNTA3IDEwODYuMSw4MTIuNjIyIDEwODcuNTUsODE3LjA5OCAxMDg5LDgxOS43NjUgMTA5MC40NSw3ODQuNTI0IDEwOTEuOSw3ODIuMzA3IDEwOTMuMzUsODAxLjY4OSAxMDk0LjgsNzc3LjEwOSAxMDk2LjI2LDc4Ni44NzMgMTA5Ny43MSw3NTYuNjMyIDEwOTkuMTYsNzQ0Ljc4NiAxMTAwLjYxLDgwOC42OTYgMTEwMi4wNiw3MTQuNjQ4IDExMDMuNTEsNzMxLjA2MSAxMTA0Ljk2LDcyMC41NTkgMTEwNi40MSw2ODUuNzUxIDExMDcuODYsNjUxLjgzNCAxMTA5LjMxLDY3Ny44ODYgMTExMC43Nyw3MDUuODU5IDExMTIuMjIsNjY5Ljk1MyAxMTEzLjY3LDY0MS4yMTYgMTExNS4xMiw2MzkuNzk3IDExMTYuNTcsNjYyLjY3MyAxMTE4LjAyLDU4OC45NjYgMTExOS40Nyw1NDQuNzEgMTEyMC45Miw1NjAuNzAxIDExMjIuMzcsNTM5LjM1MSAxMTIzLjgyLDUxMS41MjYgMTEyNS4yNyw1MjMuOTQ1IDExMjYuNzMsNDQ0LjYxNyAxMTI4LjE4LDQ1MC43MTMgMTEyOS42Myw0NjAuMDMyIDExMzEuMDgsNDEwLjI3NiAxMTMyLjUzLDM2OS42OTEgMTEzMy45OCw0MzQuMTYxIDExMzUuNDMsMzcxLjQ5OCAxMTM2Ljg4LDM4MS41ODMgMTEzOC4zMywzNjkuNzYxIDExMzkuNzgsMzMzLjI1NyAxMTQxLjI0LDMzNC44MzQgMTE0Mi42OSwyNzEuMzY4IDExNDQuMTQsMjY1LjYyMSAxMTQ1LjU5LDIyMS42MjYgMTE0Ny4wNCwyNDMuMzE2IDExNDguNDksMTY1Ljc0NSAxMTQ5Ljk0LDIyNy43MjQgMTE1MS4zOSwxOTcuOTEgMTE1Mi44NCwyMzYuMjQ1IDExNTQuMjksMTkwLjI0MyAxMTU1Ljc1LDExOS4yOTcgMTE1Ny4yLDIxNC45NDEgMTE1OC42NSwxMDEuNTA5IDExNjAuMSwxNzYuNjgxIDExNjEuNTUsMTcwLjg3IDExNjMsMTcxLjU0NSAxMTY0LjQ1LDIwMC4xNzMgMTE2NS45LDE2Mi4zNDYgMTE2Ny4zNSwxMzAuOTI5IDExNjguOCwyMjkuMTYyIDExNzAuMjYsMTg4LjcyNSAxMTcxLjcxLDE4Ni41MjEgMTE3My4xNiwyMDAuNzA5IDExNzQuNjEsMTUzLjk0MSAxMTc2LjA2LDI0NS45MjMgMTE3Ny41MSwyODQuMjU1IDExNzguOTYsMTk0LjM2MiAxMTgwLjQxLDI2MC4yNzggMTE4MS44NiwyNTcuNjU3IDExODMuMzEsMzMyLjQ4NiAxMTg0Ljc2LDI2OC45NDkgMTE4Ni4yMiwzMjkuMzQxIDExODcuNjcsMjkwLjc3OSAxMTg5LjEyLDM2OC42ODMgMTE5MC41NywzODMuOTc0IDExOTIuMDIsNDM5LjA1NyAxMTkzLjQ3LDM2NS44MTEgMTE5NC45MiwzNzAuNTcgMTE5Ni4zNywzODMuODE0IDExOTcuODIsNTA2LjMxMiAxMTk5LjI3LDU0NS4wMTUgMTIwMC43Myw0NzMuODk1IDEyMDIuMTgsNDczLjE2NSAxMjAzLjYzLDUwMS45OTggMTIwNS4wOCw1NjYuODQ1IDEyMDYuNTMsNTc1LjIzOSAxMjA3Ljk4LDYwOC4xNzggMTIwOS40Myw1NjQuNDYyIDEyMTAuODgsNjcwLjMwMyAxMjEyLjMzLDY2My4xNjEgMTIxMy43OCw2NTkuODU4IDEyMTUuMjQsNjk3LjMxMyAxMjE2LjY5LDc0Ny42NTYgMTIxOC4xNCw2NjAuOTM0IDEyMTkuNTksNzc4Ljc2NCAxMjIxLjA0LDc0MS4yMjggMTIyMi40OSw2NzguNjk3IDEyMjMuOTQsNzc3LjY5NiAxMjI1LjM5LDc5My4yMTIgMTIyNi44NCw3NDkuODk3IDEyMjguMjksNzg0LjE4NiAxMjI5Ljc0LDg0Ni43OTYgMTIzMS4yLDc3MS45ODkgMTIzMi42NSw3NjUuMTIxIDEyMzQuMSw4MjYuNjQyIDEyMzUuNTUsODEzLjAxOSAxMjM3LDc4NC4zNTMgMTIzOC40NSw3NzIuNzk0IDEyMzkuOSw4ODEuMjIyIDEyNDEuMzUsODAzLjQ4MyAxMjQyLjgsNzk3Ljg2MSAxMjQ0LjI1LDc4NC44MjMgMTI0NS43MSw4MDkuMTU0IDEyNDcuMTYsNzg0Ljk0MSAxMjQ4LjYxLDc4NS4yNTcgMTI1MC4wNiw3NjcuODYyIDEyNTEuNTEsNjk4LjY4OCAxMjUyLjk2LDY4Ny40ODggMTI1NC40MSw3MTcuNzkzIDEyNTUuODYsNzAzLjg0MiAxMjU3LjMxLDY1MS4xOCAxMjU4Ljc2LDU5NS4zNDQgMTI2MC4yMiw2MDkuOTgyIDEyNjEuNjcsNjAxLjg2OSAxMjYzLjEyLDU2Ny4yMTIgMTI2NC41Nyw1OTkuNjU4IDEyNjYuMDIsNTI3LjY1NiAxMjY3LjQ3LDUyMy44MjcgMTI2OC45Miw1NTYuNzAyIDEyNzAuMzcsNDg3LjE2NSAxMjcxLjgyLDQ2Ny42MjcgMTI3My4yNyw0NTEuNzg5IDEyNzQuNzMsNDU0LjMyMSAxMjc2LjE4LDM5NC45NTIgMTI3Ny42Myw0MDAuNzcxIDEyNzkuMDgsMzk4LjgzNyAxMjgwLjUzLDM3My43MjIgMTI4MS45OCwzNDcuMzM2IDEyODMuNDMsMzEyLjMwOSAxMjg0Ljg4LDMxMC40MzQgMTI4Ni4zMywyNzkuNTEyIDEyODcuNzgsMjI4Ljc2NCAxMjg5LjIzLDI1NC43NiAxMjkwLjY5LDI0MC41NjUgMTI5Mi4xNCwxNzkuNjE5IDEyOTMuNTksMjE4LjYxNCAxMjk1LjA0LDIxOC41MDYgMTI5Ni40OSwxMzIuMDc5IDEyOTcuOTQsMjEwLjU5IDEyOTkuMzksMjA0Ljk2OCAxMzAwLjg0LDE5NC43NDcgMTMwMi4yOSwxMjYuMDQyIDEzMDMuNzQsMjQxLjIzNiAxMzA1LjIsMTQzLjc2NSAxMzA2LjY1LDEyOC4zNTMgMTMwOC4xLDE3NC43MjMgMTMwOS41NSwyMjYuMDI0IDEzMTEsMTk3Ljg1MSAxMzEyLjQ1LDE4OC4wMzIgMTMxMy45LDIyMy45MzEgMTMxNS4zNSwxNzAuNjkxIDEzMTYuOCwxNjQuNzU1IDEzMTguMjUsMjExLjk2NCAxMzE5LjcxLDIyMy45MDYgMTMyMS4xNiwyNDUuMDE2IDEzMjIuNjEsMTYyLjY2OCAxMzI0LjA2LDIzNy44NTcgMTMyNS41MSwyNDkuMjEgMTMyNi45NiwyNjYuMjQ5IDEzMjguNDEsMjI5LjY0NSAxMzI5Ljg2LDM0Mi40MzYgMTMzMS4zMSwzNDQuNjYxIDEzMzIuNzYsMzMzLjYyNiAxMzM0LjIyLDMyMS45ODEgMTMzNS42NywzNzQuMDkgMTMzNy4xMiwzOTguMjMyIDEzMzguNTcsNDQ4Ljc3NSAxMzQwLjAyLDQzNC42NyAxMzQxLjQ3LDQ3NS4xMDEgMTM0Mi45Miw0ODguODM0IDEzNDQuMzcsNTA3IDEzNDUuODIsNDY4Ljk2NCAxMzQ3LjI3LDQ4My4xMiAxMzQ4LjcyLDUzNi4zNTkgMTM1MC4xOCw2MzUuOTE4IDEzNTEuNjMsNTIzLjUxNCAxMzUzLjA4LDU5Mi44ODMgMTM1NC41Myw2NTIuMDM1IDEzNTUuOTgsNTg4Ljg0OCAxMzU3LjQzLDU3NS4wNDcgMTM1OC44OCw2MjYuNDI5IDEzNjAuMzMsNjcwLjA3MiAxMzYxLjc4LDY5OC41NjEgMTM2My4yMyw3NDQuNDc4IDEzNjQuNjksNzI5LjI0NCAxMzY2LjE0LDY5OC4xMTUgMTM2Ny41OSw3MjQuNzk2IDEzNjkuMDQsNzYzLjMxNiAxMzcwLjQ5LDgxNi44NTIgMTM3MS45NCw4MDguNzkxIDEzNzMuMzksNzY2LjAzMiAxMzc0Ljg0LDc3Ni45NjYgMTM3Ni4yOSw3NTUuMjc3IDEzNzcuNzQsNzUxLjIwOCAxMzc5LjIsNzUxLjI5NSAxMzgwLjY1LDc2NS4yOSAxMzgyLjEsNzY0LjYzNiAxMzgzLjU1LDgyMS4wNzIgMTM4NSw3OTMuNTg0IDEzODYuNDUsODI3LjI3NyAxMzg3LjksNzc3LjMxNCAxMzg5LjM1LDcxOC42MDYgMTM5MC44LDc2NC4xNzUgMTM5Mi4yNSw3NjAuOTM5IDEzOTMuNzEsNzczLjAwNCAxMzk1LjE2LDY5Ny4zNzQgMTM5Ni42MSw3MTEuMzcgMTM5OC4wNiw3NzYuMDAxIDEzOTkuNTEsNjg1LjEzOSAxNDAwLjk2LDY2MS44NjUgMTQwMi40MSw2MjAuMDk5IDE0MDMuODYsNjY3LjY0OSAxNDA1LjMxLDU5MS40ODYgMTQwNi43Niw2MDYuMjQxIDE0MDguMjEsNTM1LjI0MyAxNDA5LjY3LDU2NC41MzMgMTQxMS4xMiw1NjQuMTU5IDE0MTIuNTcsNTA2LjMzNSAxNDE0LjAyLDUxNi43NzMgMTQxNS40Nyw1MjguNjc4IDE0MTYuOTIsNTE3LjM1NSAxNDE4LjM3LDQzNS4xNzIgMTQxOS44Miw0ODguMjkyIDE0MjEuMjcsNDE3LjM3NCAxNDIyLjcyLDM0MC43NDEgMTQyNC4xOCwzNDcuNTIzIDE0MjUuNjMsMzQ2LjcyMyAxNDI3LjA4LDM3OC42NDEgMTQyOC41MywzMDcuNTY4IDE0MjkuOTgsMjYzLjY1NyAxNDMxLjQzLDI5Ni41MzQgMTQzMi44OCwyNDIuNzcxIDE0MzQuMzMsMjM3LjU5MyAxNDM1Ljc4LDIyOS40MzIgMTQzNy4yMywyNzQuNDcxIDE0MzguNjksMjE2LjA0MiAxNDQwLjE0LDIzOS42MjkgMTQ0MS41OSwxOTYuNjkyIDE0NDMuMDQsMTQ3LjA2MiAxNDQ0LjQ5LDE1My43OTUgMTQ0NS45NCwxOTQuNDk3IDE0NDcuMzksMjA0LjkwMyAxNDQ4Ljg0LDE2NC43NjUgMTQ1MC4yOSwxMjguNDU2IDE0NTEuNzQsMTAzLjM4MSAxNDUzLjIsMTY3LjgwMyAxNDU0LjY1LDE5NC45NjUgMTQ1Ni4xLDEzOC44MSAxNDU3LjU1LDE2NC41NjMgMTQ1OSwxNzkuMDEzIDE0NjAuNDUsODkuODUyOSAxNDYxLjksMjEwLjQ0IDE0NjMuMzUsMTYyLjY0IDE0NjQuOCwxNTkuODk4IDE0NjYuMjUsMTQ4LjU1IDE0NjcuNywyNzYuMTA5IDE0NjkuMTYsMjA5LjIyOSAxNDcwLjYxLDIyNS41MjMgMTQ3Mi4wNiwyNTguMzEyIDE0NzMuNTEsMjc1LjA0NiAxNDc0Ljk2LDM0My4xNDEgMTQ3Ni40MSwzMDguNDcyIDE0NzcuODYsMzM4Ljc0NSAxNDc5LjMxLDM1OC4xNzYgMTQ4MC43Niw0MDAuMzc0IDE0ODIuMjEsNDAyLjAyNyAxNDgzLjY3LDQwNy4wMzIgMTQ4NS4xMiw0NDIuMTE5IDE0ODYuNTcsNDA2LjkzNiAxNDg4LjAyLDQxOS4xMTMgMTQ4OS40Nyw0NjAuMTc4IDE0OTAuOTIsNTE3LjAzMSAxNDkyLjM3LDU3My43NDEgMTQ5My44Miw1MzEuMzc4IDE0OTUuMjcsNTQ0LjI2OCAxNDk2LjcyLDU2NC4yNDIgMTQ5OC4xOCw2MTIuMzY4IDE0OTkuNjMsNjI3LjI4OCAxNTAxLjA4LDYxNS4zNTcgMTUwMi41Myw2MjguNzQgMTUwMy45OCw2NDAuOTk0IDE1MDUuNDMsNjk2LjA3MSAxNTA2Ljg4LDY4NS40MDYgMTUwOC4zMyw2NTYuOTI2IDE1MDkuNzgsNzUwLjUxOSAxNTExLjIzLDcyMC42MDcgMTUxMi42OSw3MTUuOTIgMTUxNC4xNCw4MDkuMzY1IDE1MTUuNTksNzU3LjE5NSAxNTE3LjA0LDczNy4xMzUgMTUxOC40OSw3NDkuMzI2IDE1MTkuOTQsNzkzLjYwNSAxNTIxLjM5LDgyMS4xMjMgMTUyMi44NCw3OTYuMjg2IDE1MjQuMjksNzczLjgxNCAxNTI1Ljc0LDc5Ni4xNyAxNTI3LjE5LDgwMC42NTYgMTUyOC42NSw4MzIuODIgMTUzMC4xLDc1NS4yMjggMTUzMS41NSw3MTUuNDUzIDE1MzMsODA5LjI5NSAxNTM0LjQ1LDc2My4wMzMgMTUzNS45LDc2NS42NTggMTUzNy4zNSw3NjQuMTkxIDE1MzguOCw3ODAuOTA4IDE1NDAuMjUsNzEwLjgzOCAxNTQxLjcsNjc5LjM5NyAxNTQzLjE2LDcwMS45NzkgMTU0NC42MSw2OTEuMzExIDE1NDYuMDYsNzAxLjg0MyAxNTQ3LjUxLDY0NS4xIDE1NDguOTYsNjI1Ljc1NSAxNTUwLjQxLDU2Ny40MzggMTU1MS44Niw2MDcuMzc0IDE1NTMuMzEsNjQ2LjEzNyAxNTU0Ljc2LDYxOS4yMTggMTU1Ni4yMSw1NjkuMTI5IDE1NTcuNjcsNTQwLjI5NCAxNTU5LjEyLDQ4OS43MTggMTU2MC41Nyw0ODUuODUyIDE1NjIuMDIsNDY1LjM5MSIgc3R5bGU9InN0cm9rZTojY2E5ZWU2OyBzdHJva2UtbGluZWNhcDpyb3VuZDsgc3Ryb2tlLWxpbmVqb2luOnJvdW5kOyBzdHJva2Utd2lkdGg6ODsgc3Ryb2tlLW9wYWNpdHk6MTsgZmlsbDpub25lIiBjbGlwLXBhdGg9InVybCgjY2xpcDc0MikiLz4mI3hhOzxwb2x5bGluZSBwb2ludHM9IjgzNy45ODIsMTA3MC41MyA4MzkuNDMzLDExMDMuNzYgODQwLjg4NCwxMDUxLjMxIDg0Mi4zMzUsMTAwOS41IDg0My43ODYsMTAzNS40MSA4NDUuMjM3LDk1NS40ODggODQ2LjY4OCw5NTMuMjEzIDg0OC4xMzksOTA5LjA4MyA4NDkuNTksOTU3LjIzMiA4NTEuMDQxLDkzMC4wMTQgODUyLjQ5Miw5MTIuMTEyIDg1My45NDMsODg5LjM0OCA4NTUuMzkzLDg0MC44OTcgODU2Ljg0NCw5MDkuNTgyIDg1OC4yOTUsODY2LjMxOSA4NTkuNzQ2LDg1NS41MDQgODYxLjE5Nyw4MTkuNDkgODYyLjY0OCw4OTIuNzk4IDg2NC4wOTksODUwLjkwOSA4NjUuNTUsODA0LjE4MyA4NjcuMDAxLDg0NS4yNTYgODY4LjQ1Miw3NDQuMzgzIDg2OS45MDMsNzkzLjIwMyA4NzEuMzU0LDgxNi40MjMgODcyLjgwNSw3NTIuMzk4IDg3NC4yNTYsODI2LjE4MiA4NzUuNzA3LDc5Ny4xOTEgODc3LjE1OCw4NDQuNzA4IDg3OC42MDksNzk1LjI5NiA4ODAuMDYsODI3LjgyNiA4ODEuNTExLDgyNC4wNDYgODgyLjk2Miw4MzQuMzg0IDg4NC40MTMsODQ4Ljg1NiA4ODUuODY0LDgzMy4xNTIgODg3LjMxNSw4MzQuMDIyIDg4OC43NjYsODEzLjE0IDg5MC4yMTcsODYzLjQ0IDg5MS42NjgsOTE0Ljc5IDg5My4xMTksOTE0LjEwOCA4OTQuNTcsOTMzLjk0IDg5Ni4wMjEsOTQ0LjUxIDg5Ny40NzIsOTQxLjU0MSA4OTguOTIzLDk5NC44MjMgOTAwLjM3NCw5ODMuNDQzIDkwMS44MjUsOTY1LjU1IDkwMy4yNzYsOTc2LjgyIDkwNC43MjcsOTg3LjE1NyA5MDYuMTc4LDEwNzAuMiA5MDcuNjI5LDEwNjQuNjkgOTA5LjA4LDEwOTIuNyA5MTAuNTMxLDExMTguOCA5MTEuOTgyLDExMTguMTQgOTEzLjQzMiwxMTYxLjkxIDkxNC44ODMsMTE5NC43MiA5MTYuMzM0LDExNzIuMzMgOTE3Ljc4NSwxMjQ4LjY3IDkxOS4yMzYsMTE3OC45OSA5MjAuNjg3LDEyMzQuNTMgOTIyLjEzOCwxMjgxLjQ5IDkyMy41ODksMTI4MC43OSA5MjUuMDQsMTI4MC4xNyA5MjYuNDkxLDEzNTMuNzUgOTI3Ljk0MiwxMzIxLjE5IDkyOS4zOTMsMTMwNi42OSA5MzAuODQ0LDEzMzAuMzkgOTMyLjI5NSwxNDE5IDkzMy43NDYsMTM1My41IDkzNS4xOTcsMTM5Ni44MSA5MzYuNjQ4LDEzOTEuNjggOTM4LjA5OSwxNDM4LjgzIDkzOS41NSwxNDI4LjQ1IDk0MS4wMDEsMTM2NS40NCA5NDIuNDUyLDEzODguNTQgOTQzLjkwMywxMzg5LjggOTQ1LjM1NCwxMzk3LjU5IDk0Ni44MDUsMTQwNi41NCA5NDguMjU2LDE0MjguMDkgOTQ5LjcwNywxMzkzLjUzIDk1MS4xNTgsMTQ0Ni4yNiA5NTIuNjA5LDE0MzUuMDYgOTU0LjA2LDEzNTEuOTQgOTU1LjUxMSwxNDE5Ljc2IDk1Ni45NjIsMTM4Ni44NyA5NTguNDEzLDEzNDAuNzYgOTU5Ljg2NCwxMzU2LjY2IDk2MS4zMTUsMTM2OS43MSA5NjIuNzY2LDEzMjQuMiA5NjQuMjE3LDEzNTMuODEgOTY1LjY2OCwxMjk2Ljk0IDk2Ny4xMTksMTMxMS40MyA5NjguNTcsMTI5MS4wOSA5NzAuMDIxLDEyMTguODUgOTcxLjQ3MSwxMjYxLjE0IDk3Mi45MjIsMTI1Ny43NyA5NzQuMzczLDExODcuNDYgOTc1LjgyNCwxMTQ3LjIyIDk3Ny4yNzUsMTE3Mi4zMiA5NzguNzI2LDExODAuMSA5ODAuMTc3LDExNTEuNiA5ODEuNjI4LDExNTIuMzYgOTgzLjA3OSwxMTQ4LjE3IDk4NC41MywxMDI1LjMgOTg1Ljk4MSwxMDQ3LjQ3IDk4Ny40MzIsMTAzOC44OCA5ODguODgzLDEwMjEuOTggOTkwLjMzNCwxMDMzLjY4IDk5MS43ODUsOTU5LjQwNiA5OTMuMjM2LDk3MC44MTkgOTk0LjY4Nyw5NTIuMjc0IDk5Ni4xMzgsOTUyLjg1MyA5OTcuNTg5LDkyMS42NTggOTk5LjA0LDg4My4zMTYgMTAwMC40OSw4NzMuNjg1IDEwMDEuOTQsODU4LjU1IDEwMDMuMzksODE3LjY1OSAxMDA0Ljg0LDkzNy4zOTIgMTAwNi4yOSw5MDEuNDg0IDEwMDcuNzUsNzg1LjExIDEwMDkuMiw3OTcuNzkzIDEwMTAuNjUsODEzLjA3MiAxMDEyLjEsNzkwLjEwNCAxMDEzLjU1LDc3NC44NjkgMTAxNSw3ODQuMzMzIDEwMTYuNDUsNzg5LjMzNCAxMDE3LjksODE5LjM5IDEwMTkuMzUsODM1Ljk1NSAxMDIwLjgsODAyLjY5NSAxMDIyLjI2LDg3MC4yMDQgMTAyMy43MSw4MjIuNTg5IDEwMjUuMTYsNzkwLjI5IDEwMjYuNjEsODYwLjc4NCAxMDI4LjA2LDgwNS42MyAxMDI5LjUxLDg0NC4wODIgMTAzMC45Niw3NzYuMzc0IDEwMzIuNDEsODQyLjMyMSAxMDMzLjg2LDg2OC45NTkgMTAzNS4zMSw4NjkuNDUxIDEwMzYuNzcsODYyLjgyNCAxMDM4LjIyLDkxNi43MDYgMTAzOS42Nyw4OTcuODQxIDEwNDEuMTIsOTc4Ljk3OCAxMDQyLjU3LDkyNi40MDkgMTA0NC4wMiwxMDIzLjA1IDEwNDUuNDcsOTkzLjkxIDEwNDYuOTIsOTg5LjE0NSAxMDQ4LjM3LDEwNjUuMjMgMTA0OS44MiwxMDYyLjQxIDEwNTEuMjgsMTAyNy4zNSAxMDUyLjczLDEwNzcuMzEgMTA1NC4xOCwxMDY5LjgzIDEwNTUuNjMsMTE0Mi4xOSAxMDU3LjA4LDExNTQuODIgMTA1OC41MywxMTgyLjMxIDEwNTkuOTgsMTE3MS4yIDEwNjEuNDMsMTEzNy45MSAxMDYyLjg4LDEyMDUuNzggMTA2NC4zMywxMjcwLjAzIDEwNjUuNzgsMTMxNS45MSAxMDY3LjI0LDEzMjAuMjggMTA2OC42OSwxMzQ2LjMyIDEwNzAuMTQsMTI2MS40MSAxMDcxLjU5LDEzNDEuNzIgMTA3My4wNCwxMzQyLjUzIDEwNzQuNDksMTM1Ni4wOCAxMDc1Ljk0LDE0MDguMDIgMTA3Ny4zOSwxMzY5LjcyIDEwNzguODQsMTM4Ny4wNCAxMDgwLjI5LDE0MzYuMDEgMTA4MS43NSwxNDA3LjIzIDEwODMuMiwxMzY3Ljg0IDEwODQuNjUsMTQ0OC45MyAxMDg2LjEsMTM5NS45NSAxMDg3LjU1LDE0MjcuMjggMTA4OSwxNDA5LjE0IDEwOTAuNDUsMTM5My45MSAxMDkxLjksMTQ4MS4wNiAxMDkzLjM1LDE0MTAuMDEgMTA5NC44LDEzNTkuNCAxMDk2LjI2LDE0MTguNDMgMTA5Ny43MSwxMzMzLjE2IDEwOTkuMTYsMTQxMS45OSAxMTAwLjYxLDE0MDcuMDggMTEwMi4wNiwxNDAzLjY4IDExMDMuNTEsMTM3Ny41IDExMDQuOTYsMTQyMS43NSAxMTA2LjQxLDEzNTEuMzQgMTEwNy44NiwxMzMyLjgyIDExMDkuMzEsMTI3NC44OCAxMTEwLjc3LDEzMzguNzMgMTExMi4yMiwxMjg5LjUgMTExMy42NywxMjU4LjY4IDExMTUuMTIsMTI2NS45MyAxMTE2LjU3LDEyMDkuMSAxMTE4LjAyLDEyNjEuMTYgMTExOS40NywxMTg4Ljk1IDExMjAuOTIsMTE4Mi4wMSAxMTIyLjM3LDExNDcuODggMTEyMy44MiwxMTI2LjA0IDExMjUuMjcsMTExMi42IDExMjYuNzMsMTEzMi43NSAxMTI4LjE4LDEwOTIuMDMgMTEyOS42MywxMDM0LjI5IDExMzEuMDgsOTkxLjc5OSAxMTMyLjUzLDEwNDUuNzggMTEzMy45OCwxMDMwLjM1IDExMzUuNDMsOTcyLjk5NCAxMTM2Ljg4LDEwNDUuNDggMTEzOC4zMywxMDA1LjM0IDExMzkuNzgsOTQ4LjA5NyAxMTQxLjI0LDkyNy4wOTkgMTE0Mi42OSw4NjkuMzA3IDExNDQuMTQsODg5LjQ5NiAxMTQ1LjU5LDkwMy41NDYgMTE0Ny4wNCw4NzMuNDY4IDExNDguNDksODczLjIwMSAxMTQ5Ljk0LDgyMC44MzggMTE1MS4zOSw4MjUuMyAxMTUyLjg0LDc5My40NzYgMTE1NC4yOSw4MzUuMDYxIDExNTUuNzUsNzc1LjU2OCAxMTU3LjIsODYxLjg1NSAxMTU4LjY1LDc5My41MTYgMTE2MC4xLDc2OC44NzYgMTE2MS41NSw4MzcuOTg3IDExNjMsODY3Ljg2NCAxMTY0LjQ1LDc2Ny45NzMgMTE2NS45LDgxOC42MDQgMTE2Ny4zNSw4MjMuODM4IDExNjguOCw4MTcuMTY2IDExNzAuMjYsNzgxLjk1OCAxMTcxLjcxLDc3MS44MjkgMTE3My4xNiw4MjEuMjUgMTE3NC42MSw4NTUuNTgxIDExNzYuMDYsOTE3LjUwMyAxMTc3LjUxLDgzMy40ODIgMTE3OC45Niw4MzkuNjIgMTE4MC40MSw4NzkuMTcyIDExODEuODYsODY0LjU4NCAxMTgzLjMxLDk0My45ODIgMTE4NC43Niw5MzIuNjk2IDExODYuMjIsOTI0LjU0NSAxMTg3LjY3LDk0MS4wNTEgMTE4OS4xMiwxMDE3LjA1IDExOTAuNTcsMTA0NC44MSAxMTkyLjAyLDkyNi44MDcgMTE5My40NywxMDA3LjE1IDExOTQuOTIsMTA2Ny4yMiAxMTk2LjM3LDEwNzYuMDMgMTE5Ny44MiwxMTc0LjExIDExOTkuMjcsMTA5OC4zMiAxMjAwLjczLDExODEuMDMgMTIwMi4xOCwxMTU0LjQzIDEyMDMuNjMsMTE3Ni45NiAxMjA1LjA4LDExODMuNDUgMTIwNi41MywxMTg2LjM1IDEyMDcuOTgsMTI0Mi4xOCAxMjA5LjQzLDEyMzEuOTEgMTIxMC44OCwxMjMyLjg1IDEyMTIuMzMsMTIyNy43IDEyMTMuNzgsMTI0Ny41MSAxMjE1LjI0LDEzMTcuOTUgMTIxNi42OSwxMjk2LjY4IDEyMTguMTQsMTMyNS4xMiAxMjE5LjU5LDEzMjUuNDkgMTIyMS4wNCwxMzk4LjY4IDEyMjIuNDksMTM0NC43OSAxMjIzLjk0LDEzNTMuOTEgMTIyNS4zOSwxMzkwLjY1IDEyMjYuODQsMTMzMS44IDEyMjguMjksMTQzMC41IDEyMjkuNzQsMTQyMi4wNyAxMjMxLjIsMTQ1NC4yNSAxMjMyLjY1LDE0MjUuODIgMTIzNC4xLDE0MTAuNzMgMTIzNS41NSwxNDU5LjYgMTIzNywxMzkxLjggMTIzOC40NSwxMzk3LjA0IDEyMzkuOSwxNDIyLjQ0IDEyNDEuMzUsMTQ1OC42IDEyNDIuOCwxNDIyLjQgMTI0NC4yNSwxNDExLjExIDEyNDUuNzEsMTM0My44OCAxMjQ3LjE2LDEzNzEuMTIgMTI0OC42MSwxMzUwLjA5IDEyNTAuMDYsMTM4Ni44NyAxMjUxLjUxLDEzOTQuOTggMTI1Mi45NiwxMzQzLjE5IDEyNTQuNDEsMTI4Mi41OSAxMjU1Ljg2LDEyNTEuNDcgMTI1Ny4zMSwxMzIxLjcxIDEyNTguNzYsMTI5MC43MiAxMjYwLjIyLDEyMzAuMDMgMTI2MS42NywxMjE0LjY5IDEyNjMuMTIsMTE4MS43MiAxMjY0LjU3LDExNTcuNjkgMTI2Ni4wMiwxMTk1LjMyIDEyNjcuNDcsMTEyNy40NSAxMjY4LjkyLDExMjAuNDIgMTI3MC4zNywxMTM2LjM2IDEyNzEuODIsMTE0Ni44MyAxMjczLjI3LDExMDcuNDggMTI3NC43MywxMDgzLjAzIDEyNzYuMTgsMTA0NS44MiAxMjc3LjYzLDEwMzQuOTEgMTI3OS4wOCw5OTAuNjMyIDEyODAuNTMsOTgyLjczMiAxMjgxLjk4LDk1MS40ODYgMTI4My40Myw5NjguNjQ0IDEyODQuODgsMTAyNC4xMyAxMjg2LjMzLDkxMy40NTkgMTI4Ny43OCw4ODYuMjM0IDEyODkuMjMsODg0LjQyNSAxMjkwLjY5LDg5Mi4zODcgMTI5Mi4xNCw4ODcuNjMyIDEyOTMuNTksODM4LjY0OSAxMjk1LjA0LDgwMi44NTMgMTI5Ni40OSw3OTguMDkxIDEyOTcuOTQsODE5LjM3IDEyOTkuMzksODA0LjE5OCAxMzAwLjg0LDg0MS42OTMgMTMwMi4yOSw4NDcuMTE5IDEzMDMuNzQsODE4LjM2IDEzMDUuMiw4NTEgMTMwNi42NSw4MzcuNjk4IDEzMDguMSw4MzkuMDAzIDEzMDkuNTUsNzgyLjQzMSAxMzExLDc3MC41NDQgMTMxMi40NSw4MjcuNjQxIDEzMTMuOSw3OTMuMjgxIDEzMTUuMzUsODExLjkxMSAxMzE2LjgsODEyLjkxMSAxMzE4LjI1LDgyMC4zNzUgMTMxOS43MSw4NDUuNjI5IDEzMjEuMTYsODA0LjIyIDEzMjIuNjEsODM1LjYxNyAxMzI0LjA2LDg5MS44MTkgMTMyNS41MSw5MTUuMDY3IDEzMjYuOTYsODYxLjkwMyAxMzI4LjQxLDg5NS42NjggMTMyOS44Niw5MTEuMDI3IDEzMzEuMzEsOTYxLjQ1NSAxMzMyLjc2LDEwMDMuNyAxMzM0LjIyLDkzOS44OTIgMTMzNS42Nyw5NzYuMzE4IDEzMzcuMTIsOTk2LjE0OSAxMzM4LjU3LDEwMTIuMTYgMTM0MC4wMiwxMDIyLjA3IDEzNDEuNDcsMTA2Ni4xNyAxMzQyLjkyLDEwMTUuMDMgMTM0NC4zNywxMTI3Ljk4IDEzNDUuODIsMTE0Mi40NyAxMzQ3LjI3LDExMzEuMDMgMTM0OC43MiwxMTkxLjQ3IDEzNTAuMTgsMTE1NS41MiAxMzUxLjYzLDEyMjIuNTggMTM1My4wOCwxMjE5LjU0IDEzNTQuNTMsMTIyMC44OCAxMzU1Ljk4LDExOTQuMDcgMTM1Ny40MywxMjIwLjI0IDEzNTguODgsMTMzOC42MiAxMzYwLjMzLDEzMDcuNTQgMTM2MS43OCwxMzEzLjc1IDEzNjMuMjMsMTM2Ny45NiAxMzY0LjY5LDEzNTguODkgMTM2Ni4xNCwxMzA1LjE3IDEzNjcuNTksMTM0Mi4yOCAxMzY5LjA0LDEzODguNzUgMTM3MC40OSwxNDE4LjE2IDEzNzEuOTQsMTQwMy45IDEzNzMuMzksMTQwMS4wMyAxMzc0Ljg0LDE0NTAuMDIgMTM3Ni4yOSwxMzk5LjE1IDEzNzcuNzQsMTM5NC4wMiAxMzc5LjIsMTQ0Ni4xOCAxMzgwLjY1LDEzOTMuNiAxMzgyLjEsMTQyMy44NiAxMzgzLjU1LDE0MTUuMTMgMTM4NSwxNDYwLjc0IDEzODYuNDUsMTQxNi43NiAxMzg3LjksMTM4NS40MSAxMzg5LjM1LDE0MTMuMDggMTM5MC44LDEzNzguMDMgMTM5Mi4yNSwxMzY4Ljg0IDEzOTMuNzEsMTM3OS43NyAxMzk1LjE2LDE0MTEuMzYgMTM5Ni42MSwxMzU3LjUyIDEzOTguMDYsMTMyMS45NyAxMzk5LjUxLDEzMDUuMzcgMTQwMC45NiwxMzM1LjUyIDE0MDIuNDEsMTI3Ny4yNCAxNDAzLjg2LDEyNjYuNjEgMTQwNS4zMSwxMjkxLjQ5IDE0MDYuNzYsMTI1OC42OSAxNDA4LjIxLDExOTEuNzYgMTQwOS42NywxMTg3Ljk5IDE0MTEuMTIsMTE4Ni42MSAxNDEyLjU3LDExNjEuMzYgMTQxNC4wMiwxMTcwLjQ1IDE0MTUuNDcsMTA5My4wNyAxNDE2LjkyLDEwOTYuNzggMTQxOC4zNywxMDgzLjc0IDE0MTkuODIsMTA5OS4wMyAxNDIxLjI3LDExMDIuNDQgMTQyMi43MiwxMDY5LjQyIDE0MjQuMTgsOTczLjA1NiAxNDI1LjYzLDk3Ny4yNzkgMTQyNy4wOCw5MjIuMDQzIDE0MjguNTMsOTcxLjMyNCAxNDI5Ljk4LDg3OC4zMTQgMTQzMS40Myw5MTUuMTIzIDE0MzIuODgsODgwLjg2NiAxNDM0LjMzLDg3NC4wNDcgMTQzNS43OCw4NzMuOTEgMTQzNy4yMyw4NDAuOTU1IDE0MzguNjksODU0LjgwMSAxNDQwLjE0LDgzMS40NDcgMTQ0MS41OSw4MjMuNDY2IDE0NDMuMDQsNzQ1LjY5IDE0NDQuNDksODUzLjA0MSAxNDQ1Ljk0LDgwNy41NzcgMTQ0Ny4zOSw3NTMuMTM4IDE0NDguODQsODEyLjY5MSAxNDUwLjI5LDgwNy41IDE0NTEuNzQsODA5LjMzNSAxNDUzLjIsODU2LjM2MyAxNDU0LjY1LDgwOC4wMjMgMTQ1Ni4xLDgwNS4yNDcgMTQ1Ny41NSw4NDMuODEyIDE0NTksODI3Ljk2NiAxNDYwLjQ1LDgzMy40NjkgMTQ2MS45LDgyMS4zMTkgMTQ2My4zNSw3OTYuNDA1IDE0NjQuOCw4OTEuODEgMTQ2Ni4yNSw4MjcuNzU0IDE0NjcuNyw4NDcuNTI3IDE0NjkuMTYsODU0LjU5NCAxNDcwLjYxLDg4MS41MTEgMTQ3Mi4wNiw4NjMuMjU5IDE0NzMuNTEsOTI3Ljc5IDE0NzQuOTYsOTE2LjM2IDE0NzYuNDEsOTEyLjA0MSAxNDc3Ljg2LDk3Ni4yNDQgMTQ3OS4zMSwxMDE4Ljk5IDE0ODAuNzYsOTY5LjUyMiAxNDgyLjIxLDEwMDMuMjQgMTQ4My42NywxMDM0Ljc2IDE0ODUuMTIsMTA1OC45NSAxNDg2LjU3LDEwOTEuMjMgMTQ4OC4wMiwxMDY1Ljk2IDE0ODkuNDcsMTEzNy42OCAxNDkwLjkyLDExMDkuODkgMTQ5Mi4zNywxMTY4LjEgMTQ5My44MiwxMTY5Ljc4IDE0OTUuMjcsMTIxMy4xNiAxNDk2LjcyLDExNzAuODUgMTQ5OC4xOCwxMjM2LjQ4IDE0OTkuNjMsMTI1NS4xOCAxNTAxLjA4LDEyNzQuNDMgMTUwMi41MywxMzA1LjQ2IDE1MDMuOTgsMTMyOC4yNCAxNTA1LjQzLDEyODAuMjkgMTUwNi44OCwxMzMzLjYzIDE1MDguMzMsMTMzNi42NiAxNTA5Ljc4LDEzMTcuNCAxNTExLjIzLDEzNjIuODYgMTUxMi42OSwxNDIyLjU1IDE1MTQuMTQsMTMyOS44NyAxNTE1LjU5LDEzNjkuNzkgMTUxNy4wNCwxMzc1LjkzIDE1MTguNDksMTM5Ny41NiAxNTE5Ljk0LDE0MTIuMDQgMTUyMS4zOSwxNDExLjcgMTUyMi44NCwxMzg1LjI4IDE1MjQuMjksMTQ2Mi4zMyAxNTI1Ljc0LDE0MjMuNDYgMTUyNy4xOSwxNDE1Ljk2IDE1MjguNjUsMTQxMS43NCAxNTMwLjEsMTQ1NS4zOSAxNTMxLjU1LDEzODUuNDMgMTUzMywxNDIyLjAxIDE1MzQuNDUsMTQ0Ni41IDE1MzUuOSwxNDE2LjEzIDE1MzcuMzUsMTM3Ni43IDE1MzguOCwxMzg4Ljk1IDE1NDAuMjUsMTMzOC41NCAxNTQxLjcsMTMxNS4xMSAxNTQzLjE2LDEzMjcuOTIgMTU0NC42MSwxMzMwLjUyIDE1NDYuMDYsMTI4Ny40MiAxNTQ3LjUxLDEyNTUuMzYgMTU0OC45NiwxMjMwLjU0IDE1NTAuNDEsMTI1OS40NCAxNTUxLjg2LDExNzUuMTQgMTU1My4zMSwxMjQ4LjggMTU1NC43NiwxMjAyLjc1IDE1NTYuMjEsMTE3OS42NyAxNTU3LjY3LDExNjMuOTIgMTU1OS4xMiwxMTEzLjEzIDE1NjAuNTcsMTE0OS4wMSAxNTYyLjAyLDExMjMuOTIgMTU2My40NywxMTA3LjU3IDE1NjQuOTIsMTAyNC44NyAxNTY2LjM3LDEwODEuOTggMTU2Ny44MiwxMDAwLjI0IDE1NjkuMjcsOTU4LjM3NiAxNTcwLjcyLDk3OS41MTMgMTU3Mi4xOCw5MzYuNzYyIDE1NzMuNjMsOTQzLjUyOCAxNTc1LjA4LDg5OS40NDggMTU3Ni41Myw4NzAuODY4IDE1NzcuOTgsOTIwLjIxMiAxNTc5LjQzLDkyMS4xODYgMTU4MC44OCw4NzUuNTU3IDE1ODIuMzMsODQ1Ljk1NSAxNTgzLjc4LDc5Ni45ODMgMTU4NS4yMyw4NjcuMjQyIDE1ODYuNjgsOTAwLjQzMiAxNTg4LjE0LDc2Ny4yNDIgMTU4OS41OSw4MjAuMjQ2IDE1OTEuMDQsODQ2LjY2NiAxNTkyLjQ5LDc4OC4zNzUgMTU5My45NCw3ODIuMjQxIDE1OTUuMzksNzg2LjM4NiAxNTk2Ljg0LDg0MS4zMDggMTU5OC4yOSw3NzguMzA2IDE1OTkuNzQsODM5LjA1NCAxNjAxLjE5LDc4MC4xNjggMTYwMi42NSw4MzEuMDM2IDE2MDQuMSw3ODcuMzU1IDE2MDUuNTUsODAzLjI3OCAxNjA3LDgzMS41MDggMTYwOC40NSw4MTAuNTY2IDE2MDkuOSw4MTMuNDk0IDE2MTEuMzUsODE1Ljk1OCAxNjEyLjgsODU3LjE2NiAxNjE0LjI1LDg3Ny41OTYgMTYxNS43LDg5My45MDYgMTYxNy4xNiw4OTguNjkxIDE2MTguNjEsOTI2LjIyNiAxNjIwLjA2LDkyMy4wNDggMTYyMS41MSw5NDYuNzczIDE2MjIuOTYsOTQ2LjgzMyAxNjI0LjQxLDk0OC43MTUgMTYyNS44Niw5NjkuNzE5IDE2MjcuMzEsMTAyMS41MiAxNjI4Ljc2LDEwNjAuMDcgMTYzMC4yMSwxMDM5LjAxIDE2MzEuNjYsMTA0NC41NSAxNjMzLjEyLDExMzMuODQgMTYzNC41NywxMTE2Ljg4IDE2MzYuMDIsMTA5Mi41IDE2MzcuNDcsMTExNi44MiAxNjM4LjkyLDExOTEuODMgMTY0MC4zNywxMTQxLjQxIDE2NDEuODIsMTIyMi45MSAxNjQzLjI3LDExOTkuMjcgMTY0NC43MiwxMjc4LjI4IDE2NDYuMTcsMTI4My4zOSAxNjQ3LjYzLDEyOTYuMDIgMTY0OS4wOCwxMzIxLjE4IDE2NTAuNTMsMTI3Mi42NiAxNjUxLjk4LDEzMDUuNzUgMTY1My40MywxMzg1LjQxIDE2NTQuODgsMTM1MC40OSAxNjU2LjMzLDEzNDQuNjUgMTY1Ny43OCwxMzY3Ljk2IDE2NTkuMjMsMTQxMi40MSAxNjYwLjY4LDEzOTIuMTIgMTY2Mi4xNCwxNDIwLjc0IDE2NjMuNTksMTM5OS40OSAxNjY1LjA0LDEzOTAuMTUgMTY2Ni40OSwxNTAzLjE0IDE2NjcuOTQsMTQzNi41OSAxNjY5LjM5LDE0MDguNCAxNjcwLjg0LDEzNTguNDEgMTY3Mi4yOSwxNDczLjY3IDE2NzMuNzQsMTM4Mi45NyAxNjc1LjE5LDEzOTAuNDEgMTY3Ni42NSwxMzk1LjAyIDE2NzguMSwxNDUyLjcgMTY3OS41NSwxMzc5LjQxIDE2ODEsMTM3Mi40MyAxNjgyLjQ1LDE0MjcuMTUgMTY4My45LDEzODguODkgMTY4NS4zNSwxMzcyLjUyIDE2ODYuOCwxMzQ4LjA4IDE2ODguMjUsMTI2My42MSAxNjg5LjcsMTI5Ny4yOCAxNjkxLjE1LDEzMzAuODYgMTY5Mi42MSwxMjU5LjgyIDE2OTQuMDYsMTI3MS4zOSAxNjk1LjUxLDEyNTUuMiAxNjk2Ljk2LDEyNDIuMTkgMTY5OC40MSwxMjI3LjcyIDE2OTkuODYsMTIxMS42MSAxNzAxLjMxLDExNTIuNjcgMTcwMi43NiwxMjAyLjMxIDE3MDQuMjEsMTE3NS4yMSAxNzA1LjY2LDExMDMuMTcgMTcwNy4xMiwxMDU4LjE0IDE3MDguNTcsMTE1MC4wNSAxNzEwLjAyLDEwNzQuNDggMTcxMS40NywxMDA3LjE3IDE3MTIuOTIsMTA0Mi42MyAxNzE0LjM3LDk4NC4xOTggMTcxNS44MiwxMDMwLjc2IDE3MTcuMjcsOTg0LjU0MyAxNzE4LjcyLDk3Mi43NiAxNzIwLjE3LDkyNC4xNDggMTcyMS42Myw5MzUuMDIxIDE3MjMuMDgsOTI3LjM2IDE3MjQuNTMsODg2Ljg4IDE3MjUuOTgsODkwLjE3IDE3MjcuNDMsODE2LjM0NiAxNzI4Ljg4LDg2MS45ODcgMTczMC4zMyw4MjcuOTcgMTczMS43OCw4MjMuMzk5IDE3MzMuMjMsNzk2LjUyOSAxNzM0LjY4LDc5MC41NTUgMTczNi4xNCw4MzYuNTcyIDE3MzcuNTksODIxLjA4NiAxNzM5LjA0LDc4NS4yNjYgMTc0MC40OSw4NTUuODg0IDE3NDEuOTQsNzcyLjc1NiAxNzQzLjM5LDgwMi4zMjYgMTc0NC44NCw3NTQuNzc3IDE3NDYuMjksODE5LjgzMyAxNzQ3Ljc0LDgyMy40ODYgMTc0OS4xOSw4MTUuMjM2IDE3NTAuNjQsODIzLjI2MiAxNzUyLjEsNzkxLjk1MSAxNzUzLjU1LDc5My41NTIgMTc1NSw4NjAuNDc4IDE3NTYuNDUsODcxLjE3MSAxNzU3LjksODk3LjkzMSAxNzU5LjM1LDkwMS44NzcgMTc2MC44LDkzMC42NiAxNzYyLjI1LDg5My45ODggMTc2My43LDk0NS42MjUgMTc2NS4xNSw5MTYuMDY3IDE3NjYuNjEsODg5LjAyMyAxNzY4LjA2LDk3Mi41MDEgMTc2OS41MSw5NDAuMjk5IDE3NzAuOTYsOTU4LjUxNiAxNzcyLjQxLDEwMjAuNTEgMTc3My44Niw5NDkuMzQ1IDE3NzUuMzEsMTAwOS42OCAxNzc2Ljc2LDEwNTcuNDMgMTc3OC4yMSwxMDE4LjcxIDE3NzkuNjYsMTE4Mi41NSAxNzgxLjEyLDExNzEuMzUgMTc4Mi41NywxMTgwLjYzIDE3ODQuMDIsMTEzMi41NiAxNzg1LjQ3LDExNDQuNDEgMTc4Ni45MiwxMjI3LjEgMTc4OC4zNywxMjUzLjQyIDE3ODkuODIsMTIzNi4wMyAxNzkxLjI3LDEyMzEuNjkgMTc5Mi43MiwxMjQ0Ljc4IDE3OTQuMTcsMTIzMS4zNCAxNzk1LjYzLDEzNDQuNjIgMTc5Ny4wOCwxMzExLjc0IDE3OTguNTMsMTM2MC4wOCAxNzk5Ljk4LDEzODUuMTYgMTgwMS40MywxMzY0LjcgMTgwMi44OCwxMzk5LjA4IDE4MDQuMzMsMTM5MS4zMiAxODA1Ljc4LDE0NDkuODkgMTgwNy4yMywxMzU1LjM3IDE4MDguNjgsMTQ2OS45OSAxODEwLjEzLDEzOTMuNDMgMTgxMS41OSwxNDQxLjU1IDE4MTMuMDQsMTQ0Ni4wMiAxODE0LjQ5LDE0NDguNjkgMTgxNS45NCwxNDEzLjQ1IDE4MTcuMzksMTQxMS4yMyAxODE4Ljg0LDE0MzAuNjEgMTgyMC4yOSwxNDA2LjAzIDE4MjEuNzQsMTQxNS44IDE4MjMuMTksMTM4NS41NiAxODI0LjY0LDEzNzMuNzEgMTgyNi4xLDE0MzcuNjIgMTgyNy41NSwxMzQzLjU3IDE4MjksMTM1OS45OSAxODMwLjQ1LDEzNDkuNDggMTgzMS45LDEzMTQuNjggMTgzMy4zNSwxMjgwLjc2IDE4MzQuOCwxMzA2LjgxIDE4MzYuMjUsMTMzNC43OCAxODM3LjcsMTI5OC44OCAxODM5LjE1LDEyNzAuMTQgMTg0MC42MSwxMjY4LjcyIDE4NDIuMDYsMTI5MS42IDE4NDMuNTEsMTIxNy44OSAxODQ0Ljk2LDExNzMuNjQgMTg0Ni40MSwxMTg5LjYzIDE4NDcuODYsMTE2OC4yOCAxODQ5LjMxLDExNDAuNDUgMTg1MC43NiwxMTUyLjg3IDE4NTIuMjEsMTA3My41NCAxODUzLjY2LDEwNzkuNjQgMTg1NS4xMiwxMDg4Ljk2IDE4NTYuNTcsMTAzOS4yIDE4NTguMDIsOTk4LjYxNyAxODU5LjQ3LDEwNjMuMDkgMTg2MC45MiwxMDAwLjQyIDE4NjIuMzcsMTAxMC41MSAxODYzLjgyLDk5OC42ODcgMTg2NS4yNyw5NjIuMTgyIDE4NjYuNzIsOTYzLjc1OSAxODY4LjE3LDkwMC4yOTMgMTg2OS42Miw4OTQuNTQ3IDE4NzEuMDgsODUwLjU1MSAxODcyLjUzLDg3Mi4yNDIgMTg3My45OCw3OTQuNjcgMTg3NS40Myw4NTYuNjQ5IDE4NzYuODgsODI2LjgzNSAxODc4LjMzLDg2NS4xNyAxODc5Ljc4LDgxOS4xNjggMTg4MS4yMyw3NDguMjIyIDE4ODIuNjgsODQzLjg2NiAxODg0LjEzLDczMC40MzUgMTg4NS41OSw4MDUuNjA2IDE4ODcuMDQsNzk5Ljc5NiAxODg4LjQ5LDgwMC40NyAxODg5Ljk0LDgyOS4wOTggMTg5MS4zOSw3OTEuMjcxIDE4OTIuODQsNzU5Ljg1NCAxODk0LjI5LDg1OC4wODcgMTg5NS43NCw4MTcuNjUgMTg5Ny4xOSw4MTUuNDQ2IDE4OTguNjQsODI5LjYzNCAxOTAwLjEsNzgyLjg2NiAxOTAxLjU1LDg3NC44NDggMTkwMyw5MTMuMTggMTkwNC40NSw4MjMuMjg3IDE5MDUuOSw4ODkuMjA0IDE5MDcuMzUsODg2LjU4MyAxOTA4LjgsOTYxLjQxMiAxOTEwLjI1LDg5Ny44NzQgMTkxMS43LDk1OC4yNjYgMTkxMy4xNSw5MTkuNzA0IDE5MTQuNjEsOTk3LjYwOCAxOTE2LjA2LDEwMTIuOSAxOTE3LjUxLDEwNjcuOTggMTkxOC45Niw5OTQuNzM2IDE5MjAuNDEsOTk5LjQ5NSAxOTIxLjg2LDEwMTIuNzQgMTkyMy4zMSwxMTM1LjI0IDE5MjQuNzYsMTE3My45NCAxOTI2LjIxLDExMDIuODIgMTkyNy42NiwxMTAyLjA5IDE5MjkuMTEsMTEzMC45MiAxOTMwLjU3LDExOTUuNzcgMTkzMi4wMiwxMjA0LjE2IDE5MzMuNDcsMTIzNy4xIDE5MzQuOTIsMTE5My4zOSAxOTM2LjM3LDEyOTkuMjMgMTkzNy44MiwxMjkyLjA5IDE5MzkuMjcsMTI4OC43OCAxOTQwLjcyLDEzMjYuMjQgMTk0Mi4xNywxMzc2LjU4IDE5NDMuNjIsMTI4OS44NiAxOTQ1LjA4LDE0MDcuNjkgMTk0Ni41MywxMzcwLjE1IDE5NDcuOTgsMTMwNy42MiAxOTQ5LjQzLDE0MDYuNjIgMTk1MC44OCwxNDIyLjE0IDE5NTIuMzMsMTM3OC44MiAxOTUzLjc4LDE0MTMuMTEgMTk1NS4yMywxNDc1LjcyIDE5NTYuNjgsMTQwMC45MSAxOTU4LjEzLDEzOTQuMDUgMTk1OS41OSwxNDU1LjU3IDE5NjEuMDQsMTQ0MS45NCAxOTYyLjQ5LDE0MTMuMjggMTk2My45NCwxNDAxLjcyIDE5NjUuMzksMTUxMC4xNSAxOTY2Ljg0LDE0MzIuNDEgMTk2OC4yOSwxNDI2Ljc5IDE5NjkuNzQsMTQxMy43NSAxOTcxLjE5LDE0MzguMDggMTk3Mi42NCwxNDEzLjg3IDE5NzQuMSwxNDE0LjE4IDE5NzUuNTUsMTM5Ni43OSAxOTc3LDEzMjcuNjEgMTk3OC40NSwxMzE2LjQxIDE5NzkuOSwxMzQ2LjcyIDE5ODEuMzUsMTMzMi43NyAxOTgyLjgsMTI4MC4xMSAxOTg0LjI1LDEyMjQuMjcgMTk4NS43LDEyMzguOTEgMTk4Ny4xNSwxMjMwLjc5IDE5ODguNiwxMTk2LjE0IDE5OTAuMDYsMTIyOC41OCAxOTkxLjUxLDExNTYuNTggMTk5Mi45NiwxMTUyLjc1IDE5OTQuNDEsMTE4NS42MyAxOTk1Ljg2LDExMTYuMDkgMTk5Ny4zMSwxMDk2LjU1IDE5OTguNzYsMTA4MC43MSAyMDAwLjIxLDEwODMuMjUgMjAwMS42NiwxMDIzLjg4IDIwMDMuMTEsMTAyOS43IDIwMDQuNTcsMTAyNy43NiAyMDA2LjAyLDEwMDIuNjUgMjAwNy40Nyw5NzYuMjYxIDIwMDguOTIsOTQxLjIzNCAyMDEwLjM3LDkzOS4zNiAyMDExLjgyLDkwOC40MzcgMjAxMy4yNyw4NTcuNjg5IDIwMTQuNzIsODgzLjY4NSAyMDE2LjE3LDg2OS40OTEgMjAxNy42Miw4MDguNTQ0IDIwMTkuMDgsODQ3LjU0IDIwMjAuNTMsODQ3LjQzMSAyMDIxLjk4LDc2MS4wMDQgMjAyMy40Myw4MzkuNTE1IDIwMjQuODgsODMzLjg5MyAyMDI2LjMzLDgyMy42NzIgMjAyNy43OCw3NTQuOTY4IDIwMjkuMjMsODcwLjE2MSAyMDMwLjY4LDc3Mi42OSAyMDMyLjEzLDc1Ny4yNzggMjAzMy41OCw4MDMuNjQ4IDIwMzUuMDQsODU0Ljk0OSAyMDM2LjQ5LDgyNi43NzYgMjAzNy45NCw4MTYuOTU3IDIwMzkuMzksODUyLjg1NiAyMDQwLjg0LDc5OS42MTYgMjA0Mi4yOSw3OTMuNjggMjA0My43NCw4NDAuODkgMjA0NS4xOSw4NTIuODMyIDIwNDYuNjQsODczLjk0MSAyMDQ4LjA5LDc5MS41OTQgMjA0OS41NSw4NjYuNzgyIDIwNTEsODc4LjEzNSAyMDUyLjQ1LDg5NS4xNzQgMjA1My45LDg1OC41NyAyMDU1LjM1LDk3MS4zNjIgMjA1Ni44LDk3My41ODYgMjA1OC4yNSw5NjIuNTUxIDIwNTkuNyw5NTAuOTA2IDIwNjEuMTUsMTAwMy4wMSAyMDYyLjYsMTAyNy4xNiAyMDY0LjA2LDEwNzcuNyAyMDY1LjUxLDEwNjMuNiAyMDY2Ljk2LDExMDQuMDMgMjA2OC40MSwxMTE3Ljc2IDIwNjkuODYsMTEzNS45MyAyMDcxLjMxLDEwOTcuODkgMjA3Mi43NiwxMTEyLjA1IDIwNzQuMjEsMTE2NS4yOCAyMDc1LjY2LDEyNjQuODQgMjA3Ny4xMSwxMTUyLjQ0IDIwNzguNTcsMTIyMS44MSAyMDgwLjAyLDEyODAuOTYgMjA4MS40NywxMjE3Ljc3IDIwODIuOTIsMTIwMy45NyAyMDg0LjM3LDEyNTUuMzUgMjA4NS44MiwxMjk5IDIwODcuMjcsMTMyNy40OSAyMDg4LjcyLDEzNzMuNCAyMDkwLjE3LDEzNTguMTcgMjA5MS42MiwxMzI3LjA0IDIwOTMuMDcsMTM1My43MiAyMDk0LjUzLDEzOTIuMjQgMjA5NS45OCwxNDQ1Ljc4IDIwOTcuNDMsMTQzNy43MiAyMDk4Ljg4LDEzOTQuOTYgMjEwMC4zMywxNDA1Ljg5IDIxMDEuNzgsMTM4NC4yIDIxMDMuMjMsMTM4MC4xMyAyMTA0LjY4LDEzODAuMjIgMjEwNi4xMywxMzk0LjIyIDIxMDcuNTgsMTM5My41NiAyMTA5LjA0LDE0NTAgMjExMC40OSwxNDIyLjUxIDIxMTEuOTQsMTQ1Ni4yIDIxMTMuMzksMTQwNi4yNCAyMTE0Ljg0LDEzNDcuNTMgMjExNi4yOSwxMzkzLjEgMjExNy43NCwxMzg5Ljg2IDIxMTkuMTksMTQwMS45MyAyMTIwLjY0LDEzMjYuMyAyMTIyLjA5LDEzNDAuMjkgMjEyMy41NSwxNDA0LjkzIDIxMjUsMTMxNC4wNiAyMTI2LjQ1LDEyOTAuNzkgMjEyNy45LDEyNDkuMDIgMjEyOS4zNSwxMjk2LjU3IDIxMzAuOCwxMjIwLjQxIDIxMzIuMjUsMTIzNS4xNyAyMTMzLjcsMTE2NC4xNyAyMTM1LjE1LDExOTMuNDYgMjEzNi42LDExOTMuMDggMjEzOC4wNiwxMTM1LjI2IDIxMzkuNTEsMTE0NS43IDIxNDAuOTYsMTE1Ny42IDIxNDIuNDEsMTE0Ni4yOCAyMTQzLjg2LDEwNjQuMSAyMTQ1LjMxLDExMTcuMjIgMjE0Ni43NiwxMDQ2LjMgMjE0OC4yMSw5NjkuNjY2IDIxNDkuNjYsOTc2LjQ0OCAyMTUxLjExLDk3NS42NDggMjE1Mi41NiwxMDA3LjU3IDIxNTQuMDIsOTM2LjQ5MyAyMTU1LjQ3LDg5Mi41ODMgMjE1Ni45Miw5MjUuNDU5IDIxNTguMzcsODcxLjY5NiAyMTU5LjgyLDg2Ni41MTggMjE2MS4yNyw4NTguMzU3IDIxNjIuNzIsOTAzLjM5NiAyMTY0LjE3LDg0NC45NjcgMjE2NS42Miw4NjguNTU0IDIxNjcuMDcsODI1LjYxOCAyMTY4LjUzLDc3NS45ODcgMjE2OS45OCw3ODIuNzIxIDIxNzEuNDMsODIzLjQyMyAyMTcyLjg4LDgzMy44MjggMjE3NC4zMyw3OTMuNjkgMjE3NS43OCw3NTcuMzgxIDIxNzcuMjMsNzMyLjMwNiAyMTc4LjY4LDc5Ni43MjggMjE4MC4xMyw4MjMuODkgMjE4MS41OCw3NjcuNzM1IDIxODMuMDQsNzkzLjQ4OCAyMTg0LjQ5LDgwNy45MzggMjE4NS45NCw3MTguNzc4IDIxODcuMzksODM5LjM2NSAyMTg4Ljg0LDc5MS41NjUgMjE5MC4yOSw3ODguODI0IDIxOTEuNzQsNzc3LjQ3NiAyMTkzLjE5LDkwNS4wMzUgMjE5NC42NCw4MzguMTU0IDIxOTYuMDksODU0LjQ0OSAyMTk3LjU1LDg4Ny4yMzcgMjE5OSw5MDMuOTcxIDIyMDAuNDUsOTcyLjA2NiAyMjAxLjksOTM3LjM5OCAyMjAzLjM1LDk2Ny42NyAyMjA0LjgsOTg3LjEwMSAyMjA2LjI1LDEwMjkuMyAyMjA3LjcsMTAzMC45NSAyMjA5LjE1LDEwMzUuOTYgMjIxMC42LDEwNzEuMDQgMjIxMi4wNSwxMDM1Ljg2IDIyMTMuNTEsMTA0OC4wNCAyMjE0Ljk2LDEwODkuMSAyMjE2LjQxLDExNDUuOTYgMjIxNy44NiwxMjAyLjY3IDIyMTkuMzEsMTE2MC4zIDIyMjAuNzYsMTE3My4xOSAyMjIyLjIxLDExOTMuMTcgMjIyMy42NiwxMjQxLjI5IDIyMjUuMTEsMTI1Ni4yMSAyMjI2LjU2LDEyNDQuMjggMjIyOC4wMiwxMjU3LjY3IDIyMjkuNDcsMTI2OS45MiAyMjMwLjkyLDEzMjUgMjIzMi4zNywxMzE0LjMzIDIyMzMuODIsMTI4NS44NSAyMjM1LjI3LDEzNzkuNDQgMjIzNi43MiwxMzQ5LjUzIDIyMzguMTcsMTM0NC44NSAyMjM5LjYyLDE0MzguMjkgMjI0MS4wNywxMzg2LjEyIDIyNDIuNTMsMTM2Ni4wNiAyMjQzLjk4LDEzNzguMjUgMjI0NS40MywxNDIyLjUzIDIyNDYuODgsMTQ1MC4wNSAyMjQ4LjMzLDE0MjUuMjEgMjI0OS43OCwxNDAyLjc0IDIyNTEuMjMsMTQyNS4xIDIyNTIuNjgsMTQyOS41OCAyMjU0LjEzLDE0NjEuNzQgMjI1NS41OCwxMzg0LjE1IDIyNTcuMDQsMTM0NC4zOCAyMjU4LjQ5LDE0MzguMjIgMjI1OS45NCwxMzkxLjk2IDIyNjEuMzksMTM5NC41OCAyMjYyLjg0LDEzOTMuMTIgMjI2NC4yOSwxNDA5LjgzIDIyNjUuNzQsMTMzOS43NiAyMjY3LjE5LDEzMDguMzIgMjI2OC42NCwxMzMwLjkgMjI3MC4wOSwxMzIwLjI0IDIyNzEuNTQsMTMzMC43NyAyMjczLDEyNzQuMDMgMjI3NC40NSwxMjU0LjY4IDIyNzUuOSwxMTk2LjM2IDIyNzcuMzUsMTIzNi4zIDIyNzguOCwxMjc1LjA2IDIyODAuMjUsMTI0OC4xNCAyMjgxLjcsMTE5OC4wNSAyMjgzLjE1LDExNjkuMjIgMjI4NC42LDExMTguNjQgMjI4Ni4wNSwxMTE0Ljc4IDIyODcuNTEsMTA5NC4zMiIgc3R5bGU9InN0cm9rZTojZTc4Mjg0OyBzdHJva2UtbGluZWNhcDpyb3VuZDsgc3Ryb2tlLWxpbmVqb2luOnJvdW5kOyBzdHJva2Utd2lkdGg6ODsgc3Ryb2tlLW9wYWNpdHk6MTsgZmlsbDpub25lIiBjbGlwLXBhdGg9InVybCgjY2xpcDc0MikiLz4mI3hhOzxwb2x5bGluZSBwb2ludHM9IjgzNi41MzEsMzA1OC4yNyA4MzYuNTMxLC0xNDU4LjI3IiBzdHlsZT0ic3Ryb2tlOiMwMDAwMDA7IHN0cm9rZS1saW5lY2FwOnJvdW5kOyBzdHJva2UtbGluZWpvaW46cm91bmQ7IHN0cm9rZS13aWR0aDoxMjsgc3Ryb2tlLW9wYWNpdHk6MTsgZmlsbDpub25lIiBjbGlwLXBhdGg9InVybCgjY2xpcDc0MikiLz4mI3hhOzxwb2x5bGluZSBwb2ludHM9IjE1NjIuMDIsMzA1OC4yNyAxNTYyLjAyLC0xNDU4LjI3IiBzdHlsZT0ic3Ryb2tlOiMwMDAwMDA7IHN0cm9rZS1saW5lY2FwOnJvdW5kOyBzdHJva2UtbGluZWpvaW46cm91bmQ7IHN0cm9rZS13aWR0aDoxMjsgc3Ryb2tlLW9wYWNpdHk6MTsgZmlsbDpub25lIiBjbGlwLXBhdGg9InVybCgjY2xpcDc0MikiLz4mI3hhOzxwYXRoIGZpbGwtb3BhY2l0eT0iMSIgZmlsbC1ydWxlPSJldmVub2RkIiBmaWxsPSIjZmZmZmZmIiBkPSJNMTc5MS45NSAzMzAuNzA4IEwyMjc1LjkxIDMzMC43MDggTDIyNzUuOTEgOTcuNDI3OCBMMTc5MS45NSA5Ny40Mjc4ICBaIiBjbGlwLXBhdGg9InVybCgjY2xpcDc0MCkiLz4mI3hhOzxwb2x5bGluZSBwb2ludHM9IjE3OTEuOTUsMzMwLjcwOCAyMjc1LjkxLDMzMC43MDggMjI3NS45MSw5Ny40Mjc4IDE3OTEuOTUsOTcuNDI3OCAxNzkxLjk1LDMzMC43MDgiIHN0eWxlPSJzdHJva2U6IzAwMDAwMDsgc3Ryb2tlLWxpbmVjYXA6cm91bmQ7IHN0cm9rZS1saW5lam9pbjpyb3VuZDsgc3Ryb2tlLXdpZHRoOjQ7IHN0cm9rZS1vcGFjaXR5OjA7IGZpbGw6bm9uZSIgY2xpcC1wYXRoPSJ1cmwoI2NsaXA3NDApIi8+JiN4YTs8cG9seWxpbmUgcG9pbnRzPSIxODE3LjU3LDE3NS4xODggMTk3MS4yNywxNzUuMTg4IiBzdHlsZT0ic3Ryb2tlOiNjYTllZTY7IHN0cm9rZS1saW5lY2FwOnJvdW5kOyBzdHJva2UtbGluZWpvaW46cm91bmQ7IHN0cm9rZS13aWR0aDoxMjsgc3Ryb2tlLW9wYWNpdHk6MTsgZmlsbDpub25lIiBjbGlwLXBhdGg9InVybCgjY2xpcDc0MCkiLz4mI3hhOzxwYXRoIGZpbGwtb3BhY2l0eT0iMSIgZmlsbC1ydWxlPSJub256ZXJvIiBmaWxsPSIjMDAwMDAwIiBkPSJNMjAzMy44NyAxNjIuMjE5IEwyMDE5LjggMTgxLjE0MyBMMjAzNC42IDIwMS4xMDggTDIwMjcuMDYgMjAxLjEwOCBMMjAxNS43NCAxODUuODMgTDIwMDQuNDIgMjAxLjEwOCBMMTk5Ni44OSAyMDEuMTA4IEwyMDExLjk5IDE4MC43NjEgTDE5OTguMTcgMTYyLjIxOSBMMjAwNS43MSAxNjIuMjE5IEwyMDE2LjAyIDE3Ni4wNzMgTDIwMjYuMzMgMTYyLjIxOSBMMjAzMy44NyAxNjIuMjE5IFoiIGNsaXAtcGF0aD0idXJsKCNjbGlwNzQwKSIvPjxwYXRoIGZpbGwtb3BhY2l0eT0iMSIgZmlsbC1ydWxlPSJub256ZXJvIiBmaWxsPSIjMDAwMDAwIiBkPSJNMjA1OC45NyAxNDcuMTUgUTIwNTQuMzIgMTU1LjEzNiAyMDUyLjA2IDE2Mi45NDggUTIwNDkuOCAxNzAuNzYxIDIwNDkuOCAxNzguNzgyIFEyMDQ5LjggMTg2LjgwMiAyMDUyLjA2IDE5NC42ODQgUTIwNTQuMzUgMjAyLjUzMSAyMDU4Ljk3IDIxMC40ODMgTDIwNTMuNDEgMjEwLjQ4MyBRMjA0OC4yMSAyMDIuMzIzIDIwNDUuNiAxOTQuNDQxIFEyMDQzLjAzIDE4Ni41NTkgMjA0My4wMyAxNzguNzgyIFEyMDQzLjAzIDE3MS4wMzkgMjA0NS42IDE2My4xOTEgUTIwNDguMTcgMTU1LjM0NCAyMDUzLjQxIDE0Ny4xNSBMMjA1OC45NyAxNDcuMTUgWiIgY2xpcC1wYXRoPSJ1cmwoI2NsaXA3NDApIi8+PHBhdGggZmlsbC1vcGFjaXR5PSIxIiBmaWxsLXJ1bGU9Im5vbnplcm8iIGZpbGw9IiMwMDAwMDAiIGQ9Ik0yMDc3LjY5IDE1MS4xNzggTDIwNzcuNjkgMTYyLjIxOSBMMjA5MC44NSAxNjIuMjE5IEwyMDkwLjg1IDE2Ny4xODQgTDIwNzcuNjkgMTY3LjE4NCBMMjA3Ny42OSAxODguMjk1IFEyMDc3LjY5IDE5My4wNTIgMjA3OC45NyAxOTQuNDA2IFEyMDgwLjI5IDE5NS43NjEgMjA4NC4yOCAxOTUuNzYxIEwyMDkwLjg1IDE5NS43NjEgTDIwOTAuODUgMjAxLjEwOCBMMjA4NC4yOCAyMDEuMTA4IFEyMDc2Ljg5IDIwMS4xMDggMjA3NC4wNyAxOTguMzY1IFEyMDcxLjI2IDE5NS41ODcgMjA3MS4yNiAxODguMjk1IEwyMDcxLjI2IDE2Ny4xODQgTDIwNjYuNTcgMTY3LjE4NCBMMjA2Ni41NyAxNjIuMjE5IEwyMDcxLjI2IDE2Mi4yMTkgTDIwNzEuMjYgMTUxLjE3OCBMMjA3Ny42OSAxNTEuMTc4IFoiIGNsaXAtcGF0aD0idXJsKCNjbGlwNzQwKSIvPjxwYXRoIGZpbGwtb3BhY2l0eT0iMSIgZmlsbC1ydWxlPSJub256ZXJvIiBmaWxsPSIjMDAwMDAwIiBkPSJNMjA5OC4yNCAxNDcuMTUgTDIxMDMuOCAxNDcuMTUgUTIxMDkgMTU1LjM0NCAyMTExLjU3IDE2My4xOTEgUTIxMTQuMTggMTcxLjAzOSAyMTE0LjE4IDE3OC43ODIgUTIxMTQuMTggMTg2LjU1OSAyMTExLjU3IDE5NC40NDEgUTIxMDkgMjAyLjMyMyAyMTAzLjggMjEwLjQ4MyBMMjA5OC4yNCAyMTAuNDgzIFEyMTAyLjg2IDIwMi41MzEgMjEwNS4xMiAxOTQuNjg0IFEyMTA3LjQxIDE4Ni44MDIgMjEwNy40MSAxNzguNzgyIFEyMTA3LjQxIDE3MC43NjEgMjEwNS4xMiAxNjIuOTQ4IFEyMTAyLjg2IDE1NS4xMzYgMjA5OC4yNCAxNDcuMTUgWiIgY2xpcC1wYXRoPSJ1cmwoI2NsaXA3NDApIi8+PHBvbHlsaW5lIHBvaW50cz0iMTgxNy41NywyNTIuOTQ4IDE5NzEuMjcsMjUyLjk0OCIgc3R5bGU9InN0cm9rZTojZTc4Mjg0OyBzdHJva2UtbGluZWNhcDpyb3VuZDsgc3Ryb2tlLWxpbmVqb2luOnJvdW5kOyBzdHJva2Utd2lkdGg6MTI7IHN0cm9rZS1vcGFjaXR5OjE7IGZpbGw6bm9uZSIgY2xpcC1wYXRoPSJ1cmwoI2NsaXA3NDApIi8+JiN4YTs8cGF0aCBmaWxsLW9wYWNpdHk9IjEiIGZpbGwtcnVsZT0ibm9uemVybyIgZmlsbD0iIzAwMDAwMCIgZD0iTTIwMzMuODcgMjM5Ljk3OSBMMjAxOS44IDI1OC45MDMgTDIwMzQuNiAyNzguODY4IEwyMDI3LjA2IDI3OC44NjggTDIwMTUuNzQgMjYzLjU5IEwyMDA0LjQyIDI3OC44NjggTDE5OTYuODkgMjc4Ljg2OCBMMjAxMS45OSAyNTguNTIxIEwxOTk4LjE3IDIzOS45NzkgTDIwMDUuNzEgMjM5Ljk3OSBMMjAxNi4wMiAyNTMuODMzIEwyMDI2LjMzIDIzOS45NzkgTDIwMzMuODcgMjM5Ljk3OSBaIiBjbGlwLXBhdGg9InVybCgjY2xpcDc0MCkiLz48cGF0aCBmaWxsLW9wYWNpdHk9IjEiIGZpbGwtcnVsZT0ibm9uemVybyIgZmlsbD0iIzAwMDAwMCIgZD0iTTIwNTguOTcgMjI0LjkxIFEyMDU0LjMyIDIzMi44OTYgMjA1Mi4wNiAyNDAuNzA4IFEyMDQ5LjggMjQ4LjUyMSAyMDQ5LjggMjU2LjU0MiBRMjA0OS44IDI2NC41NjIgMjA1Mi4wNiAyNzIuNDQ0IFEyMDU0LjM1IDI4MC4yOTEgMjA1OC45NyAyODguMjQzIEwyMDUzLjQxIDI4OC4yNDMgUTIwNDguMjEgMjgwLjA4MyAyMDQ1LjYgMjcyLjIwMSBRMjA0My4wMyAyNjQuMzE5IDIwNDMuMDMgMjU2LjU0MiBRMjA0My4wMyAyNDguNzk5IDIwNDUuNiAyNDAuOTUxIFEyMDQ4LjE3IDIzMy4xMDQgMjA1My40MSAyMjQuOTEgTDIwNTguOTcgMjI0LjkxIFoiIGNsaXAtcGF0aD0idXJsKCNjbGlwNzQwKSIvPjxwYXRoIGZpbGwtb3BhY2l0eT0iMSIgZmlsbC1ydWxlPSJub256ZXJvIiBmaWxsPSIjMDAwMDAwIiBkPSJNMjA3Ny42OSAyMjguOTM4IEwyMDc3LjY5IDIzOS45NzkgTDIwOTAuODUgMjM5Ljk3OSBMMjA5MC44NSAyNDQuOTQ0IEwyMDc3LjY5IDI0NC45NDQgTDIwNzcuNjkgMjY2LjA1NSBRMjA3Ny42OSAyNzAuODEyIDIwNzguOTcgMjcyLjE2NiBRMjA4MC4yOSAyNzMuNTIxIDIwODQuMjggMjczLjUyMSBMMjA5MC44NSAyNzMuNTIxIEwyMDkwLjg1IDI3OC44NjggTDIwODQuMjggMjc4Ljg2OCBRMjA3Ni44OSAyNzguODY4IDIwNzQuMDcgMjc2LjEyNSBRMjA3MS4yNiAyNzMuMzQ3IDIwNzEuMjYgMjY2LjA1NSBMMjA3MS4yNiAyNDQuOTQ0IEwyMDY2LjU3IDI0NC45NDQgTDIwNjYuNTcgMjM5Ljk3OSBMMjA3MS4yNiAyMzkuOTc5IEwyMDcxLjI2IDIyOC45MzggTDIwNzcuNjkgMjI4LjkzOCBaIiBjbGlwLXBhdGg9InVybCgjY2xpcDc0MCkiLz48cGF0aCBmaWxsLW9wYWNpdHk9IjEiIGZpbGwtcnVsZT0ibm9uemVybyIgZmlsbD0iIzAwMDAwMCIgZD0iTTIxMjUuMjUgMjM0LjI4NSBMMjEyNS4yNSAyNTMuNjI1IEwyMTQ0LjU5IDI1My42MjUgTDIxNDQuNTkgMjU5LjUyOCBMMjEyNS4yNSAyNTkuNTI4IEwyMTI1LjI1IDI3OC44NjggTDIxMTkuNDIgMjc4Ljg2OCBMMjExOS40MiAyNTkuNTI4IEwyMTAwLjA4IDI1OS41MjggTDIxMDAuMDggMjUzLjYyNSBMMjExOS40MiAyNTMuNjI1IEwyMTE5LjQyIDIzNC4yODUgTDIxMjUuMjUgMjM0LjI4NSBaIiBjbGlwLXBhdGg9InVybCgjY2xpcDc0MCkiLz48cGF0aCBmaWxsLW9wYWNpdHk9IjEiIGZpbGwtcnVsZT0ibm9uemVybyIgZmlsbD0iIzAwMDAwMCIgZD0iTTIxNzYuNDMgMjMzLjkzOCBMMjE2Mi4yIDI3My4wMzUgTDIxOTAuNzEgMjczLjAzNSBMMjE3Ni40MyAyMzMuOTM4IE0yMTUyLjY5IDI3OC44NjggTDIxNzIuNDggMjI3LjAyOCBMMjE4MC40MyAyMjcuMDI4IEwyMjAwLjE4IDI3OC44NjggTDIxNTIuNjkgMjc4Ljg2OCBaIiBjbGlwLXBhdGg9InVybCgjY2xpcDc0MCkiLz48cGF0aCBmaWxsLW9wYWNpdHk9IjEiIGZpbGwtcnVsZT0ibm9uemVybyIgZmlsbD0iIzAwMDAwMCIgZD0iTTIyMTMuOCAyMjguOTM4IEwyMjEzLjggMjM5Ljk3OSBMMjIyNi45NiAyMzkuOTc5IEwyMjI2Ljk2IDI0NC45NDQgTDIyMTMuOCAyNDQuOTQ0IEwyMjEzLjggMjY2LjA1NSBRMjIxMy44IDI3MC44MTIgMjIxNS4wOCAyNzIuMTY2IFEyMjE2LjQgMjczLjUyMSAyMjIwLjM5IDI3My41MjEgTDIyMjYuOTYgMjczLjUyMSBMMjIyNi45NiAyNzguODY4IEwyMjIwLjM5IDI3OC44NjggUTIyMTMgMjc4Ljg2OCAyMjEwLjE4IDI3Ni4xMjUgUTIyMDcuMzcgMjczLjM0NyAyMjA3LjM3IDI2Ni4wNTUgTDIyMDcuMzcgMjQ0Ljk0NCBMMjIwMi42OCAyNDQuOTQ0IEwyMjAyLjY4IDIzOS45NzkgTDIyMDcuMzcgMjM5Ljk3OSBMMjIwNy4zNyAyMjguOTM4IEwyMjEzLjggMjI4LjkzOCBaIiBjbGlwLXBhdGg9InVybCgjY2xpcDc0MCkiLz48cGF0aCBmaWxsLW9wYWNpdHk9IjEiIGZpbGwtcnVsZT0ibm9uemVybyIgZmlsbD0iIzAwMDAwMCIgZD0iTTIyMzQuMzUgMjI0LjkxIEwyMjM5LjkxIDIyNC45MSBRMjI0NS4xMiAyMzMuMTA0IDIyNDcuNjggMjQwLjk1MSBRMjI1MC4yOSAyNDguNzk5IDIyNTAuMjkgMjU2LjU0MiBRMjI1MC4yOSAyNjQuMzE5IDIyNDcuNjggMjcyLjIwMSBRMjI0NS4xMiAyODAuMDgzIDIyMzkuOTEgMjg4LjI0MyBMMjIzNC4zNSAyODguMjQzIFEyMjM4Ljk3IDI4MC4yOTEgMjI0MS4yMyAyNzIuNDQ0IFEyMjQzLjUyIDI2NC41NjIgMjI0My41MiAyNTYuNTQyIFEyMjQzLjUyIDI0OC41MjEgMjI0MS4yMyAyNDAuNzA4IFEyMjM4Ljk3IDIzMi44OTYgMjIzNC4zNSAyMjQuOTEgWiIgY2xpcC1wYXRoPSJ1cmwoI2NsaXA3NDApIi8+PC9zdmc+;" vertex="1" parent="1">
          <mxGeometry width="600" height="400" as="geometry" />
        </mxCell>
        <mxCell id="XYIH_iJWPx2iyIGVlZ14-2" value="" style="strokeWidth=2;html=1;shape=mxgraph.flowchart.annotation_2;align=left;labelPosition=right;pointerEvents=1;rotation=-90;" vertex="1" parent="1">
          <mxGeometry x="91.25" y="328.75" width="50" height="185" as="geometry" />
        </mxCell>
        <mxCell id="XYIH_iJWPx2iyIGVlZ14-5" value="$$\Delta t$$" style="text;html=1;align=center;verticalAlign=middle;resizable=0;points=[];autosize=1;strokeColor=none;fillColor=none;fontSize=20;" vertex="1" parent="1">
          <mxGeometry x="75" y="450" width="90" height="30" as="geometry" />
        </mxCell>
      </root>
    </mxGraphModel>
  </diagram>
</mxfile>
